<svg id="Layer_1" data-name="Layer 1" xmlns="http://www.w3.org/2000/svg" xmlns:xlink="http://www.w3.org/1999/xlink" viewBox="0 0 4500 2500"><defs><style>.cls-1{fill:none;}.cls-2{fill:#aed3f0;}.cls-3{fill:#c3dcf3;}.cls-14,.cls-19,.cls-3,.cls-55,.cls-56,.cls-57,.cls-59,.cls-60,.cls-61,.cls-62,.cls-63,.cls-65,.cls-66,.cls-70{fill-rule:evenodd;}.cls-4{clip-path:url(#clip-path);}.cls-5{fill:url(#linear-gradient);}.cls-6{fill:url(#linear-gradient-2);}.cls-7{fill:url(#linear-gradient-3);}.cls-8{fill:url(#linear-gradient-4);}.cls-9{fill:url(#linear-gradient-5);}.cls-10{fill:#e5f1fa;}.cls-11{fill-opacity:0.34;}.cls-12{fill:#72b2e5;}.cls-13{fill:#c9e2f5;}.cls-14{fill:#304886;}.cls-15,.cls-26,.cls-33,.cls-42,.cls-51,.cls-64{fill:#144f7b;}.cls-15,.cls-26,.cls-33,.cls-42,.cls-51{stroke:#304886;stroke-linejoin:round;}.cls-15{stroke-width:1px;}.cls-16{fill:url(#linear-gradient-6);}.cls-17{fill:url(#linear-gradient-7);}.cls-18{fill:url(#linear-gradient-8);}.cls-19,.cls-21,.cls-55,.cls-56,.cls-60,.cls-65{fill:#fff;}.cls-19{fill-opacity:0.41;}.cls-20{fill-opacity:0.2;}.cls-22{fill-opacity:0.25;}.cls-23{fill:#dbf3fa;}.cls-24,.cls-57{fill-opacity:0.18;}.cls-25{fill:#9fdce2;}.cls-26{stroke-width:1px;}.cls-27{fill:url(#linear-gradient-9);}.cls-28{fill:url(#linear-gradient-10);}.cls-29{fill:url(#linear-gradient-11);}.cls-30{fill:#266259;}.cls-31{fill:#44ae9e;}.cls-32{fill:#96d6cc;}.cls-34{fill:#3b988a;}.cls-35{fill:url(#linear-gradient-12);}.cls-36{fill:url(#linear-gradient-13);}.cls-37{fill:#bae0da;}.cls-38{fill:url(#linear-gradient-14);}.cls-39{fill:#be9e18;}.cls-40{fill:#e6c53d;}.cls-41{fill:#fff0b4;}.cls-42{stroke-width:1px;}.cls-43{fill:url(#linear-gradient-15);}.cls-44{fill:url(#linear-gradient-16);}.cls-45{fill:url(#linear-gradient-17);}.cls-46{fill:url(#linear-gradient-18);}.cls-47{fill:#fff4c6;}.cls-48{fill:#e7347a;}.cls-49{fill:#ec6198;}.cls-50{fill:#f9aecc;}.cls-51{stroke-width:1px;}.cls-52{fill:url(#linear-gradient-19);}.cls-53{fill:#fce4ed;}.cls-54{fill:#f292b8;}.cls-55{fill-opacity:0.69;}.cls-56{fill-opacity:0.85;}.cls-57{fill:#0f8cff;}.cls-58,.cls-59{fill:#ff96bf;}.cls-61{fill:#357fc3;}.cls-62{fill:url(#linear-gradient-20);}.cls-63{fill:url(#linear-gradient-21);}.cls-65{fill-opacity:0.68;}.cls-66{fill:url(#linear-gradient-22);}.cls-67{fill:url(#linear-gradient-23);}.cls-68{fill:url(#linear-gradient-24);}.cls-69,.cls-70{fill:#134f7b;}</style><clipPath id="clip-path"><rect class="cls-1" width="4500" height="2500"/></clipPath><linearGradient id="linear-gradient" x1="1291.25" y1="1790.67" x2="1292.44" y2="1790.67" gradientTransform="matrix(768.17, -692.1, -692.1, -768.17, 248026.47, 2270830.7)" gradientUnits="userSpaceOnUse"><stop offset="0" stop-opacity="0"/><stop offset="1"/></linearGradient><linearGradient id="linear-gradient-2" x1="1291.25" y1="1790.61" x2="1292.43" y2="1790.61" gradientTransform="matrix(768.17, -692.1, -692.1, -768.17, 248356.28, 2270570.92)" xlink:href="#linear-gradient"/><linearGradient id="linear-gradient-3" x1="1290.51" y1="1790.31" x2="1291.69" y2="1790.16" gradientTransform="matrix(1344.78, -1375.89, -1211.68, -1527.25, 436434.02, 4512356.82)" xlink:href="#linear-gradient"/><linearGradient id="linear-gradient-4" x1="1291.04" y1="1790.33" x2="1292.22" y2="1790.04" gradientTransform="matrix(779.75, -905.98, -702.62, -1005.72, 253320.05, 2971346.76)" xlink:href="#linear-gradient"/><linearGradient id="linear-gradient-5" x1="1291.51" y1="1790.57" x2="1292.7" y2="1790.28" gradientTransform="matrix(617.77, -717.78, -556.66, -796.8, 199087.28, 2354590.8)" xlink:href="#linear-gradient"/><linearGradient id="linear-gradient-6" x1="1292.2" y1="1789.3" x2="1293.38" y2="1789.3" gradientTransform="matrix(-568.91, -180.32, -180.32, 568.91, 1059732.86, -784443.99)" xlink:href="#linear-gradient"/><linearGradient id="linear-gradient-7" x1="1291.44" y1="1790.26" x2="1292.62" y2="1790.26" gradientTransform="matrix(-628.31, -700.17, -700.17, 628.31, 2066957.56, -220041.27)" gradientUnits="userSpaceOnUse"><stop offset="0" stop-color="#fff" stop-opacity="0"/><stop offset="1" stop-color="#fff"/></linearGradient><linearGradient id="linear-gradient-8" x1="1287.6" y1="1789.02" x2="1288.78" y2="1789.02" gradientTransform="matrix(-474.07, 248.76, 248.76, 474.07, 167777.28, -1168027.38)" xlink:href="#linear-gradient-7"/><linearGradient id="linear-gradient-9" x1="1293.36" y1="1789.22" x2="1294.55" y2="1789.22" gradientTransform="matrix(-450.73, -142.86, -142.86, 450.73, 838654.94, -621339.78)" xlink:href="#linear-gradient"/><linearGradient id="linear-gradient-10" x1="1292.1" y1="1790.59" x2="1293.29" y2="1790.59" gradientTransform="matrix(-497.78, -554.72, -554.72, 497.78, 1636644.3, -174182.99)" xlink:href="#linear-gradient-7"/><linearGradient id="linear-gradient-11" x1="1286.62" y1="1788.16" x2="1287.81" y2="1788.16" gradientTransform="matrix(-375.59, 197.08, 197.08, 375.59, 131279.3, -924924.54)" xlink:href="#linear-gradient-7"/><linearGradient id="linear-gradient-12" x1="1292.04" y1="1789.75" x2="1293.22" y2="1789.75" gradientTransform="matrix(-633.85, -312.1, -312.1, 633.85, 1378740.97, -730246)" xlink:href="#linear-gradient"/><linearGradient id="linear-gradient-13" x1="1291.42" y1="1790.37" x2="1292.6" y2="1790.37" gradientTransform="matrix(-671.62, -748.44, -748.44, 671.62, 2208439.93, -235143.41)" xlink:href="#linear-gradient-7"/><linearGradient id="linear-gradient-14" x1="1291.43" y1="1790.44" x2="1292.61" y2="1790.44" gradientTransform="matrix(-671.62, -748.44, -748.44, 671.62, 2208118.37, -234937.16)" xlink:href="#linear-gradient-7"/><linearGradient id="linear-gradient-15" x1="1289.49" y1="1788.49" x2="1290.68" y2="1788.49" gradientTransform="matrix(-114.08, 815.4, 815.4, 114.08, -1310149.67, -1253348.9)" xlink:href="#linear-gradient"/><linearGradient id="linear-gradient-16" x1="1288.61" y1="1791.99" x2="1289.79" y2="1791.99" gradientTransform="matrix(611.96, -139.83, -139.9, -611.64, -537366.21, 1278079.11)" xlink:href="#linear-gradient-7"/><linearGradient id="linear-gradient-17" x1="1287.1" y1="1792.69" x2="1288.28" y2="1792.51" gradientTransform="matrix(291.83, -118.05, -66.47, -515.64, -255369.36, 1078019.46)" xlink:href="#linear-gradient-7"/><linearGradient id="linear-gradient-18" x1="1290.09" y1="1789.15" x2="1291.27" y2="1789.15" gradientTransform="matrix(-893.65, 1371.04, 1371.04, 893.65, -1298993.85, -3365718.51)" xlink:href="#linear-gradient-7"/><linearGradient id="linear-gradient-19" x1="1290.72" y1="1790.16" x2="1291.91" y2="1790.16" gradientTransform="matrix(-1089.35, -1213.96, -1213.96, 1089.35, 3581943.05, -381734.51)" xlink:href="#linear-gradient-7"/><linearGradient id="linear-gradient-20" x1="1286.78" y1="1788.02" x2="1287.97" y2="1788.02" gradientTransform="matrix(118.11, 308.47, 308.47, -118.11, -700532.62, -184775.86)" gradientUnits="userSpaceOnUse"><stop offset="0" stop-color="#357fc3"/><stop offset="1" stop-color="#0d4c86"/></linearGradient><linearGradient id="linear-gradient-21" x1="1293.99" y1="1791.17" x2="1295.18" y2="1791.15" gradientTransform="matrix(-157.16, -240.54, -245.13, 154.22, 645472.85, 36053.73)" xlink:href="#linear-gradient-7"/><linearGradient id="linear-gradient-22" x1="1296.33" y1="1788.43" x2="1297.52" y2="1788.43" gradientTransform="matrix(-166.45, -88.46, -88.46, 166.45, 376987.26, -182021.37)" xlink:href="#linear-gradient-7"/><linearGradient id="linear-gradient-23" x1="1300.85" y1="1793.81" x2="1302.03" y2="1793.82" gradientTransform="matrix(1.37, -98.41, -156.11, -0.62, 281245.31, 130269.39)" xlink:href="#linear-gradient-7"/><linearGradient id="linear-gradient-24" x1="1304.57" y1="1796.79" x2="1305.75" y2="1796.79" gradientTransform="matrix(0.99, -67.89, -107.7, -0.51, 195174.69, 90557.14)" xlink:href="#linear-gradient-7"/></defs><g id="c93"><rect class="cls-2" width="4500" height="2500"/><path class="cls-3" d="M825.53,2500q9.4-21.7,20.11-42.25c123.67-237.16,443.5-414.77,686.14-497.1,244.74-83,582.24-98.84,832.36-33.78,182.11,47.36,369.13,76.28,549.93,127.11,390.31,109.76,881.58,337.74,1294.46,218.52,95.47-27.57,204.66-70.95,291.47-130V2500ZM4500,521.47C4365.74,411.6,4198.51,367,4029.29,335.25,3237.41,186.68,2683.62,499.12,1921.58,587.41,1325.76,656.43,746.07,408.56,321,0H4500Z"/><rect class="cls-1" width="4500" height="2500"/><g class="cls-4"><ellipse class="cls-5" cx="809.5" cy="1414.65" rx="119.22" ry="444.72" transform="translate(-664.05 2111.2) rotate(-85.52)"/><ellipse class="cls-6" cx="1175.85" cy="1208.48" rx="119.22" ry="444.72" transform="translate(-120.78 2286.36) rotate(-85.52)"/><ellipse class="cls-7" cx="2974.56" cy="2216.25" rx="208.71" ry="884.14" transform="translate(532.8 5008.66) rotate(-85.52)"/><ellipse class="cls-8" cx="2296.4" cy="973.6" rx="121.02" ry="582.2" transform="translate(1146.47 3186.97) rotate(-85.52)"/><ellipse class="cls-9" cx="370.3" cy="718.23" rx="95.88" ry="461.26" transform="translate(-374.65 1031.31) rotate(-85.52)"/><g id="path872"><path class="cls-10" d="M2169.58,876.26c0,54.21-104.62,102.8-233.68,102.8s-233.68-48.59-233.68-102.8,104.62-98.15,233.68-98.15,233.68,43.94,233.68,98.15"/></g><g id="path874"><path class="cls-11" d="M2169.46,876.61c0-20.7-15.3-39.9-41.35-55.73v88.2l-5.51,12.61s-7.57,18.5-44.37,35a17.72,17.72,0,0,0-2.9,1.58c57.13-19.23,94.13-49.48,94.13-81.71"/></g><g id="path876"><path class="cls-12" d="M2209.69,835c0,63.51-122.58,120.45-273.79,120.45S1662.12,898.47,1662.12,835s122.57-115,273.78-115,273.79,51.49,273.79,115"/></g><g id="path880"><path class="cls-2" d="M2216.06,132.89H1655.74V820.82c0,65,125.43,123.25,280.16,123.25s280.16-58.26,280.16-123.25V132.89"/></g><path id="path8801" class="cls-13" d="M1655.74,324.93c5-1,9.64-1.88,13.49-2.6,44.43-8.29,92.92-10.81,136.1,4.68,47.16,16.92,86.59,48.93,137.2,57.42,55.1,9.25,113.24,7.94,165.3-13.86l-6.16,454.27c-5.32,2.78-93,54.88-229.27,29.78-57.17-10.52-114.56-43.69-163.88-73.45-15.79-9.53-33.86-18.77-52.78-25Z"/><path class="cls-14" d="M2017.46,773.94c-50.72,13.28-97.12,6.88-97.12,6.88l-5.13-.72-1.43,10.32,5.14.71s46.75,6.5,98.54-6.44Zm-223.17-64.57v11.28c31.76,12.91,113.92,38.78,223.17,17.2V727.24C1904.79,750,1821.43,721,1794.29,709.37Zm0-46.58v11.28c31.76,12.91,113.92,38.77,223.17,17.2V680.65C1904.79,703.45,1821.43,674.4,1794.29,662.79Zm0-46.58v11.27c31.76,12.91,113.92,38.78,223.17,17.2V634.07C1904.79,656.86,1821.43,627.82,1794.29,616.21Zm0-46.59V580.9c31.76,12.91,113.92,38.77,223.17,17.2V587.49C1904.79,610.28,1821.43,581.24,1794.29,569.62Z"/><path class="cls-15" d="M2060.18,577.79a2.41,2.41,0,0,0-2.39-2.39,2.39,2.39,0,0,0-2.39,2.39,2.32,2.32,0,0,0,.7,1.7,2.4,2.4,0,0,0,4.08-1.7Zm-2.39,5.61a5.62,5.62,0,0,1-5.59-5.61,5.43,5.43,0,0,1,1.64-4,5.58,5.58,0,0,1,7.9,0,5.6,5.6,0,0,1,0,7.92A5.33,5.33,0,0,1,2057.79,583.4Zm14.59,3a2.4,2.4,0,1,0,0,4.79,2.29,2.29,0,0,0,1.69-.69,2.38,2.38,0,0,0,0-3.39A2.27,2.27,0,0,0,2072.38,586.36Zm0,8a5.6,5.6,0,1,1,0-11.2,5.62,5.62,0,0,1,5.6,5.6,5.62,5.62,0,0,1-5.6,5.6ZM2070,572.08h2.28l-12.13,22.42h-2.33Z"/><path class="cls-15" d="M2060.18,625.58a2.38,2.38,0,0,0-4.08-1.68,2.39,2.39,0,1,0,4.08,1.68Zm-2.39,5.62a5.35,5.35,0,0,1-3.95-1.65,5.59,5.59,0,1,1,7.9,0A5.33,5.33,0,0,1,2057.79,631.2Zm14.59,3a2.37,2.37,0,0,0-2.38,2.4,2.37,2.37,0,0,0,2.38,2.39,2.26,2.26,0,0,0,1.69-.7,2.38,2.38,0,0,0,0-3.39A2.3,2.3,0,0,0,2072.38,634.16Zm0,8a5.61,5.61,0,0,1,0-11.21,5.62,5.62,0,0,1,5.6,5.61,5.62,5.62,0,0,1-5.6,5.6ZM2070,619.88h2.28l-12.13,22.41h-2.33Z"/><path class="cls-15" d="M2060.18,673.38a2.41,2.41,0,0,0-2.39-2.39,2.39,2.39,0,0,0-2.39,2.39,2.32,2.32,0,0,0,.7,1.7,2.4,2.4,0,0,0,4.08-1.7Zm-2.39,5.61a5.62,5.62,0,0,1-5.59-5.61,5.43,5.43,0,0,1,1.64-4,5.58,5.58,0,0,1,7.9,0,5.6,5.6,0,0,1,0,7.92A5.33,5.33,0,0,1,2057.79,679Zm14.59,3a2.4,2.4,0,1,0,0,4.79,2.29,2.29,0,0,0,1.69-.69,2.35,2.35,0,0,0,.71-1.7,2.38,2.38,0,0,0-.71-1.7A2.3,2.3,0,0,0,2072.38,682Zm0,8a5.6,5.6,0,1,1,0-11.2,5.62,5.62,0,0,1,5.6,5.6,5.62,5.62,0,0,1-5.6,5.6ZM2070,667.67h2.28l-12.13,22.42h-2.33Z"/><path class="cls-15" d="M2060.18,721.17a2.38,2.38,0,0,0-4.08-1.68,2.39,2.39,0,1,0,4.08,1.68Zm-2.39,5.62a5.35,5.35,0,0,1-3.95-1.65,5.59,5.59,0,1,1,7.9,0A5.33,5.33,0,0,1,2057.79,726.79Zm14.59,3a2.37,2.37,0,0,0-2.38,2.4,2.37,2.37,0,0,0,2.38,2.39,2.26,2.26,0,0,0,1.69-.7,2.38,2.38,0,0,0,0-3.39A2.3,2.3,0,0,0,2072.38,729.75Zm0,8a5.61,5.61,0,0,1,0-11.21,5.62,5.62,0,0,1,5.6,5.61,5.62,5.62,0,0,1-5.6,5.6ZM2070,715.47h2.28l-12.13,22.41h-2.33Z"/><path class="cls-15" d="M2060.18,769a2.41,2.41,0,0,0-2.39-2.39,2.39,2.39,0,0,0-1.69,4.08,2.4,2.4,0,0,0,4.08-1.69Zm-2.39,5.61a5.62,5.62,0,0,1-5.59-5.61,5.59,5.59,0,1,1,9.54,4A5.33,5.33,0,0,1,2057.79,774.58Zm14.59,3a2.4,2.4,0,1,0,0,4.79,2.29,2.29,0,0,0,1.69-.69,2.35,2.35,0,0,0,.71-1.7,2.38,2.38,0,0,0-.71-1.7A2.3,2.3,0,0,0,2072.38,777.54Zm0,8a5.6,5.6,0,1,1,0-11.2,5.62,5.62,0,0,1,5.6,5.6,5.62,5.62,0,0,1-5.6,5.6ZM2070,763.26h2.28l-12.13,22.42h-2.33Z"/><g id="path884"><path class="cls-12" d="M2216.06,128.31s-3.43-37.19-37.71-105.66L2168.17-7.76l-82.44,3.21-5.87,36.49c-42.08-10.61-91.31-16.72-144-16.72s-101.89,6.11-144,16.72l-5.87-36.49-82.45-3.21-10.17,30.41c-34.29,68.47-37.71,105.66-37.71,105.66v4.58c0,65,125.43,117.67,280.16,117.67s280.16-52.68,280.16-117.67v-4.58"/></g><g id="path8802"><path class="cls-16" d="M1901.45,16.1l-2.76,15.58c-20,3.2-34.89,24-38.81,42.79-2.67,12.8-10.48,27.42-9.37,40.68,3.13,37.26,55.4,113.26,52.13,126.28-12.16,48.42-120.51-13.26-117.22,125.23,1.94,81.42,28.82,168.59,52.71,245.9,29.54,95.55,81.58,236.18,39.78,328.74C1751,929,1655.75,877.47,1655.74,820.82V128.31s3.42-37.19,37.71-105.65l10.18-30.41,82.44,3.21,5.87,36.48C1824.69,23.68,1861.79,18.15,1901.45,16.1Z"/></g><path id="path8803" class="cls-17" d="M1655.74,370.55c46.73,49.89,87.12,106.44,133.9,156C1891.87,635,2025.71,710.4,2160.1,772.52c10.34,4.78,30.8,11.57,56,19.47v28.84a51.82,51.82,0,0,1-.69,8.33c-2.23,13.53-9.67,25.58-18.74,35.59-1.39,1.53-2.81,3-4.28,4.46q-2.82,2.77-5.79,5.37-3.7,3.24-7.62,6.23c-3.32,2.55-6.76,5-10.25,7.26q-6.81,4.48-14,8.43c-6,3.32-12.15,6.38-18.38,9.25h0c-30-18.51-57.21-37.24-76.44-47.73C1994,822.1,1924,792.11,1862.07,749.11,1798,704.54,1723.9,644.42,1655.74,576.34ZM1733-6.61c81.8,86.38,178.26,161.16,246.2,200.44,71.43,41.3,156.78,63.71,235.05,87.49l1.8.55V751.51c-30.91-12.36-60.08-26.45-84.9-37.73C2069,685.5,2009.87,656.36,1956.33,613.1c-111.54-90.11-209.89-194-300.59-304.58V128.31s3.42-37.19,37.71-105.65l10.17-30.41Z"/><ellipse class="cls-18" cx="2147.84" cy="532.99" rx="276.88" ry="59.05" transform="translate(1592.11 2675.06) rotate(-89.39)"/><path class="cls-19" d="M1664.67,163.6s147,154.18,473.28,48.93c0,0-141.36,44.64-271.7,22.51S1664.67,163.6,1664.67,163.6Z"/><g id="path888"><path class="cls-20" d="M2185.49-4.07l-6.68-10.34c-13.07-49.1-116.31-77-242.91-77S1704.79-61.8,1691.73-12.71l-5.42,8.64,5.86,21.19c13.44,48.94,117.41,87,243.73,87s230.29-38.09,243.73-87l5.86-21.19"/></g><g id="path892"><path class="cls-13" d="M2190.25-15.41l-6.81-10.54c-13.31-50-118.52-78.48-247.54-78.48s-235.52,30.18-248.83,80.22l-5.52,8.8,6,21.59c13.69,49.88,119.65,88.69,248.38,88.69s234.69-38.81,248.38-88.69l6-21.59"/></g><g id="path896"><path class="cls-21" d="M2191.6-25.95c0,56.31-114.48,102-255.7,102s-255.7-45.65-255.7-102,114.48-102,255.7-102,255.7,45.65,255.7,102"/></g><g id="path898"><path class="cls-13" d="M2178.35-25.95c0,49.64-108.55,89.88-242.45,89.88s-242.45-40.24-242.45-89.88S1802-115.83,1935.9-115.83s242.45,40.23,242.45,89.88"/></g><g id="path900"><path class="cls-22" d="M1693.45-26c0,18.84,15.66,36.32,42.39,50.77L1765.3,1.34l-19.13-83.28c-33,15.35-52.72,34.77-52.72,55.92"/></g><g id="path902"><path class="cls-23" d="M1935.9,63.93c96.51,0,179.84-20.91,218.86-51.17-10.39-41.43-104.39-73.87-218.86-73.87S1727.43-28.67,1717,12.76c39,30.26,122.35,51.17,218.86,51.17"/></g><g id="path904"><path class="cls-21" d="M1936,63.93c87.13,0,163.39-17.07,206.13-42.65-.15-1-.26-2-.51-3.08-9.76-38.93-98.08-69.41-205.62-69.41S1740.15-20.73,1730.38,18.2c-.32,1-.49,2-.72,2.95,42.7,25.65,119.07,42.78,206.35,42.78"/></g><g id="path906"><path class="cls-24" d="M2062.27-20.85c-20.88-9.85-55.24-13.87-79-9.55h0L1834.62-14.87l-.68.09-.37,0h0A150.59,150.59,0,0,0,1817.87-12c-40.85,9.6-43.19,31.91-5.22,49.83s101.85,24.65,142.69,15a96.08,96.08,0,0,0,13.07-4h0l.23-.09.49-.2,90.36-40,3.33-1.49c20.19-6,20.32-18.14-.57-28"/></g><g id="path908"><path class="cls-21" d="M1934.75,30.81c-18.75,4.41-48.38,1.1-65.09-7.43C1855.1,16,1855.8,6.81,1871.29,2.44c.84-.23,1.7-.45,2.59-.65,5.52-1.25.17-4.95-6.76-4.62A98.66,98.66,0,0,0,1842.91,1c-18.91,5.92-20.17,17.3-3,27,22.5,12.77,65.54,17.92,92.39,11.61a44.72,44.72,0,0,0,13.61-5.21c3.29-2.09-5.34-5-10.81-3.7l-.35.08"/></g><g id="path910"><path class="cls-21" d="M1912.65,54.36c-28.11,0-61.64-6-82.29-15.78-18.43-8.7-27.57-17.19-27.95-25.95-.26-6.09,3.72-11.57,11.83-16.3,9.28-5.4,25.31-8.48,47.66-9.18,12.85-.38,20.67-.16,33.14,2.31l1,.17L1894.77-3l-1.06-.17c-11.94-2.37-19.06-2.6-31.58-2.2-20.81.65-36.08,3.47-44.17,8.18-3.8,2.21-8.29,5.66-8.13,9.53.11,2.56,2.64,9.59,23.69,19.52,25.93,12.24,75.21,18.49,103.41,13.1,20.16-3.84,26-9,26.35-11.37.23-1.83-2.76-5.52-12-9.86L1926,11.75,1929.16,5,1954.47,17c11.68,5.52,17,11.26,16.18,17.55-1,7.88-11.87,13.85-32.34,17.75a139.77,139.77,0,0,1-25.66,2.11"/></g><g id="path912"><path class="cls-21" d="M1959.41,12.1l-33,7.76c-6.38,1.5-17.09.09-23.93-3.14s-7.22-7.06-.85-8.56l33-7.75c6.37-1.5,17.09-.1,23.93,3.13s7.22,7.06.85,8.56"/></g><g id="path914"><path class="cls-25" d="M1950.63,5.41c3.16,1.49,3,3.34-.43,4.14a21,21,0,0,1-11.86-1.25c-3.16-1.49-3-3.35.43-4.14a21,21,0,0,1,11.86,1.25"/></g><g id="path916"><path class="cls-12" d="M2055.38-31.45c9.42,3.57,9.57,9.72.34,13.75s-24.34,4.39-33.76.82l-33.24-12.58c-9.41-3.57-9.56-9.71-.33-13.74s24.34-4.39,33.76-.83Zm-59.85,40-9.28,4.05c-18.23,8-48.08,8.68-66.67,1.64s-18.89-19.18-.67-27.13l9.28-4.05c18.23-7.94,48.08-8.68,66.67-1.64S2013.75.59,1995.53,8.53Zm-28.39-53.84-67.08,29.24c-25.79,11.24-25.37,28.43.94,38.39s68.54,8.92,94.33-2.32l67.08-29.25c25.79-11.24,25.37-28.43-.94-38.39s-68.54-8.92-94.33,2.33"/></g><g id="path918"><path class="cls-21" d="M2055.23-37.85c9.41,3.57,9.56,9.71.33,13.74s-24.34,4.39-33.76.83l-33.23-12.58c-9.42-3.57-9.57-9.72-.34-13.74s24.34-4.4,33.76-.83Zm-59.86,40-9.28,4.05c-18.23,8-48.08,8.68-66.67,1.64s-18.89-19.18-.66-27.13l9.27-4.05c18.23-7.94,48.08-8.68,66.67-1.64S2013.6-5.81,1995.37,2.13ZM1967-51.72l-67.08,29.25c-25.79,11.24-25.37,28.43.94,38.39s68.53,8.92,94.32-2.32l67.09-29.25c25.78-11.24,25.37-28.43-.94-38.39S1992.78-63,1967-51.72"/></g><g id="path8721"><path class="cls-10" d="M269.81,641.11c0,42.95-82.89,81.44-185.13,81.44s-185.14-38.49-185.14-81.44,82.89-77.76,185.14-77.76,185.13,34.81,185.13,77.76"/></g><g id="path8741"><path class="cls-11" d="M269.72,641.39c0-16.4-12.12-31.61-32.76-44.16v69.88l-4.36,10s-6,14.66-35.16,27.77a14.4,14.4,0,0,0-2.3,1.25c45.27-15.23,74.58-39.2,74.58-64.73"/></g><g id="path8761"><path class="cls-12" d="M301.59,608.39c0,50.32-97.12,95.43-216.91,95.43s-216.91-45.11-216.91-95.43,97.11-91.11,216.91-91.11,216.91,40.79,216.91,91.11"/></g><g id="path8804"><path class="cls-2" d="M306.64,52.16H-137.28v545c0,51.49,99.37,97.65,222,97.65s222-46.16,222-97.65v-545"/></g><path id="path8805" class="cls-13" d="M-137.28,204.31c4-.82,7.63-1.49,10.69-2.06C-91.4,195.68-53,193.68-18.77,206c37.36,13.41,68.61,38.77,108.7,45.5,43.65,7.33,89.72,6.29,131-11L216,600.37c-4.21,2.2-73.64,43.48-181.64,23.6-45.3-8.34-90.76-34.62-129.84-58.2C-108,558.22-122.29,550.9-137.28,546Z"/><path class="cls-14" d="M149.29,560.05c-40.18,10.52-76.94,5.44-76.94,5.44l-4.07-.56-1.13,8.17,4.08.57a228.89,228.89,0,0,0,78.06-5.11ZM-27.52,508.89v8.94c25.17,10.22,90.26,30.72,176.81,13.62V523C60,541.1-6,518.09-27.52,508.89Zm0-36.91v8.94c25.17,10.23,90.26,30.72,176.81,13.63v-8.42C60,504.2-6,481.18-27.52,472Zm0-36.9V444c25.17,10.23,90.26,30.72,176.81,13.63v-8.41C60,467.29-6,444.28-27.52,435.08Zm0-36.91v8.94c25.17,10.22,90.26,30.71,176.81,13.62v-8.41C60,430.38-6,407.37-27.52,398.17Z"/><path class="cls-26" d="M183.14,404.64a1.84,1.84,0,0,0-.56-1.34,1.9,1.9,0,0,0-2.67,0,1.9,1.9,0,0,0,0,2.69,1.9,1.9,0,0,0,2.67,0A1.84,1.84,0,0,0,183.14,404.64Zm-1.89,4.45a4.46,4.46,0,0,1-4.43-4.45,4.42,4.42,0,1,1,4.43,4.45Zm11.56,2.34a1.9,1.9,0,1,0,1.34,3.25,1.89,1.89,0,0,0,.55-1.35,1.87,1.87,0,0,0-.55-1.34A1.84,1.84,0,0,0,192.81,411.43Zm0,6.34a4.26,4.26,0,0,1-3.13-1.3,4.44,4.44,0,0,1,0-6.28,4.43,4.43,0,1,1,3.13,7.58Zm-1.89-17.65h1.8l-9.61,17.76h-1.84Z"/><path class="cls-26" d="M183.14,442.51a1.84,1.84,0,0,0-.56-1.34,1.87,1.87,0,0,0-2.67,0,1.88,1.88,0,0,0,0,2.68,1.87,1.87,0,0,0,2.67,0A1.84,1.84,0,0,0,183.14,442.51ZM181.25,447a4.44,4.44,0,1,1,3.13-7.58,4.47,4.47,0,0,1,0,6.28A4.24,4.24,0,0,1,181.25,447Zm11.56,2.35a1.84,1.84,0,0,0-1.34.56,1.9,1.9,0,0,0,2.68,2.68,1.9,1.9,0,0,0-1.34-3.24Zm0,6.34a4.44,4.44,0,1,1,0-8.88,4.44,4.44,0,0,1,0,8.88ZM190.92,438h1.8l-9.61,17.77h-1.84Z"/><path class="cls-26" d="M183.14,480.37a1.8,1.8,0,0,0-.56-1.33,1.87,1.87,0,0,0-2.67,0,1.8,1.8,0,0,0-.56,1.33,1.84,1.84,0,0,0,.56,1.35,1.87,1.87,0,0,0,2.67,0A1.84,1.84,0,0,0,183.14,480.37Zm-1.89,4.45a4.46,4.46,0,0,1-4.43-4.45,4.42,4.42,0,1,1,4.43,4.45Zm11.56,2.34a1.9,1.9,0,1,0,1.34,3.25,1.87,1.87,0,0,0,.55-1.34,1.89,1.89,0,0,0-.55-1.35A1.84,1.84,0,0,0,192.81,487.16Zm0,6.34a4.29,4.29,0,0,1-3.13-1.29,4.45,4.45,0,0,1,0-6.29,4.29,4.29,0,0,1,3.13-1.29,4.44,4.44,0,0,1,4.43,4.44,4.42,4.42,0,0,1-4.43,4.43Zm-1.89-17.65h1.8l-9.61,17.76h-1.84Z"/><path class="cls-26" d="M183.14,518.24a1.84,1.84,0,0,0-.56-1.34,1.87,1.87,0,0,0-2.67,0,1.84,1.84,0,0,0-.56,1.34,1.8,1.8,0,0,0,.56,1.34,1.87,1.87,0,0,0,2.67,0A1.8,1.8,0,0,0,183.14,518.24Zm-1.89,4.44a4.44,4.44,0,0,1-4.43-4.44,4.43,4.43,0,1,1,4.43,4.44ZM192.81,525a1.91,1.91,0,0,0-1.34,3.25,1.91,1.91,0,0,0,2.68,0,1.89,1.89,0,0,0,.55-1.35,1.87,1.87,0,0,0-.55-1.34A1.84,1.84,0,0,0,192.81,525Zm0,6.34a4.44,4.44,0,1,1,0-8.88,4.44,4.44,0,0,1,0,8.88Zm-1.89-17.65h1.8l-9.61,17.76h-1.84Z"/><path class="cls-26" d="M183.14,556.1a1.81,1.81,0,0,0-.56-1.33,1.87,1.87,0,0,0-2.67,0,1.81,1.81,0,0,0-.56,1.33,1.84,1.84,0,0,0,.56,1.35,1.87,1.87,0,0,0,2.67,0A1.84,1.84,0,0,0,183.14,556.1Zm-1.89,4.45a4.2,4.2,0,0,1-3.13-1.31,4.39,4.39,0,1,1,3.13,1.31Zm11.56,2.35a1.88,1.88,0,0,0-1.89,1.9,1.9,1.9,0,0,0,3.23,1.34,1.85,1.85,0,0,0,.55-1.34,1.89,1.89,0,0,0-.55-1.35A1.87,1.87,0,0,0,192.81,562.9Zm0,6.34a4.44,4.44,0,1,1,0-8.88,4.44,4.44,0,0,1,0,8.88Zm-1.89-17.66h1.8l-9.61,17.76h-1.84Z"/><g id="path8841"><path class="cls-12" d="M306.64,48.53s-2.72-29.46-29.88-83.71L268.7-59.27l-65.32,2.55-4.65,28.9c-33.33-8.41-72.34-13.25-114-13.25S4-36.23-29.38-27.82L-34-56.72l-65.32-2.55-8.06,24.09c-27.16,54.25-29.87,83.71-29.87,83.71v3.63c0,51.49,99.37,93.23,222,93.23s222-41.74,222-93.23V48.53"/></g><g id="path8806"><path class="cls-27" d="M57.38-40.36,55.2-28C39.33-25.48,27.56-9,24.45,5.88,22.33,16,16.14,27.6,17,38.11c2.47,29.51,43.89,89.73,41.29,100.05-9.63,38.35-95.47-10.51-92.86,99.21C-33,301.87-11.71,370.94,7.22,432.19c23.4,75.7,64.63,187.11,31.52,260.45-100.54-9.75-176-50.57-176-95.45V48.53s2.71-29.46,29.87-83.7l8.06-24.1L-34-56.72l4.65,28.9A453.54,453.54,0,0,1,57.38-40.36Z"/></g><path id="path8807" class="cls-28" d="M-137.28,240.45c37,39.53,69,84.33,106.08,123.62,81,85.86,187,145.63,293.51,194.85,8.18,3.79,24.39,9.17,44.33,15.42v22.85a40.54,40.54,0,0,1-.55,6.6c-1.77,10.72-7.66,20.27-14.85,28.2-1.09,1.21-2.22,2.38-3.39,3.53-1.48,1.47-3,2.88-4.58,4.26-2,1.71-4,3.35-6,4.93-2.63,2-5.35,3.93-8.12,5.76q-5.4,3.54-11.05,6.67c-4.76,2.64-9.63,5.06-14.56,7.34h0c-23.79-14.66-45.33-29.51-60.57-37.82-52.19-28.46-107.7-52.22-156.73-86.29A1238.18,1238.18,0,0,1-137.28,403.5ZM-76.06-58.36C-11.26,10.08,65.16,69.32,119,100.44c56.59,32.72,124.21,50.48,186.22,69.32l1.43.43V542.27c-24.49-9.79-47.6-20.95-67.26-29.89-49.26-22.4-96.1-45.49-138.52-79.76C12.49,361.22-65.43,278.89-137.28,191.31V48.54s2.71-29.47,29.87-83.71l8.06-24.09Z"/><ellipse class="cls-29" cx="252.59" cy="369.15" rx="219.36" ry="46.79" transform="translate(-119.22 617.81) rotate(-89.39)"/><path class="cls-19" d="M-130.21,76.49s116.5,122.15,375,38.77c0,0-112,35.36-215.25,17.83S-130.21,76.49-130.21,76.49Z"/><g id="path8881"><path class="cls-20" d="M282.42-56.35l-5.29-8.19c-10.36-38.9-92.15-61-192.45-61s-183.1,23.46-193.45,62.36l-4.29,6.84,4.64,16.79c10.65,38.78,93,69,193.1,69S267.13-.78,277.78-39.56l4.64-16.79"/></g><g id="path8921"><path class="cls-13" d="M286.19-65.33l-5.39-8.35c-10.55-39.65-93.91-62.18-196.12-62.18s-186.6,23.91-197.14,63.56l-4.38,7,4.73,17.11C-101.26-8.71-17.31,22,84.68,22S270.61-8.71,281.46-48.22l4.73-17.11"/></g><g id="path8961"><path class="cls-21" d="M287.26-73.68c0,44.61-90.7,80.77-202.58,80.77S-117.91-29.07-117.91-73.68s90.7-80.78,202.59-80.78S287.26-118.3,287.26-73.68"/></g><g id="path8722"><path class="cls-10" d="M1238.68,1092.27c0,58-111.83,109.89-249.78,109.89s-249.79-51.94-249.79-109.89S850.94,987.35,988.9,987.35s249.78,47,249.78,104.92"/></g><g id="path8742"><path class="cls-11" d="M1238.56,1092.64c0-22.12-16.35-42.64-44.2-59.57v94.28l-5.89,13.48s-8.1,19.78-47.43,37.46a21.06,21.06,0,0,0-3.1,1.69c61.07-20.55,100.62-52.89,100.62-87.34"/></g><g id="path8762"><path class="cls-30" d="M1281.56,1048.13c0,67.88-131,128.75-292.66,128.75S696.24,1116,696.24,1048.13,827.27,925.2,988.9,925.2s292.66,55,292.66,122.93"/></g><g id="path8808"><path class="cls-31" d="M1288.37,297.65H689.42V1033c0,69.47,134.08,131.75,299.48,131.75s299.47-62.28,299.47-131.75V297.65"/></g><path id="path8809" class="cls-32" d="M689.42,502.93c5.39-1.11,10.31-2,14.43-2.78,47.48-8.86,99.32-11.55,145.47,5,50.42,18.09,92.57,52.31,146.66,61.39,58.9,9.89,121.06,8.49,176.7-14.82l-6.59,485.58c-5.68,3-99.35,58.67-245.07,31.84-61.11-11.24-122.46-46.7-175.17-78.52-16.88-10.18-36.2-20.06-56.43-26.72Z"/><path class="cls-14" d="M1076.08,982.9c-54.22,14.19-103.82,7.35-103.82,7.35l-5.48-.76-1.52,11,5.49.77s50,6.94,105.33-6.89Zm-238.56-69v12c34,13.81,121.78,41.46,238.56,18.39V933C955.64,957.34,866.54,926.3,837.52,913.88Zm0-49.8v12.06c34,13.8,121.78,41.45,238.56,18.39V883.17C955.64,907.55,866.54,876.49,837.52,864.08Zm0-49.79v12.05c34,13.8,121.78,41.45,238.56,18.39V833.38C955.64,857.74,866.54,826.7,837.52,814.29Zm0-49.8v12.06c34,13.8,121.78,41.44,238.56,18.39V783.59C955.64,808,866.54,776.91,837.52,764.49Z"/><path class="cls-33" d="M1121.74,773.22a2.55,2.55,0,0,0-5.1,0,2.55,2.55,0,1,0,5.1,0Zm-2.55,6a6,6,0,1,1,4.23-10.23,6,6,0,0,1-4.23,10.23Zm15.6,3.17a2.54,2.54,0,0,0-2.55,2.56,2.53,2.53,0,0,0,2.55,2.56,2.49,2.49,0,0,0,1.81-.74,2.54,2.54,0,0,0,.75-1.82,2.5,2.5,0,0,0-.75-1.81A2.46,2.46,0,0,0,1134.79,782.39Zm0,8.55a6,6,0,0,1,0-12,6,6,0,0,1,6,6,6,6,0,0,1-6,6Zm-2.55-23.82h2.44l-13,24h-2.49Z"/><path class="cls-33" d="M1121.74,824.31a2.55,2.55,0,0,0-5.1,0,2.55,2.55,0,1,0,5.1,0Zm-2.55,6a6,6,0,1,1,4.23-10.23,6,6,0,0,1-4.23,10.23Zm15.6,3.17a2.54,2.54,0,0,0-2.55,2.56,2.53,2.53,0,0,0,2.55,2.56,2.49,2.49,0,0,0,1.81-.74,2.54,2.54,0,0,0,.75-1.82,2.5,2.5,0,0,0-.75-1.81A2.46,2.46,0,0,0,1134.79,833.48Zm0,8.55a6,6,0,0,1,0-12,6,6,0,0,1,6,6,6,6,0,0,1-6,6Zm-2.55-23.82h2.44l-13,24h-2.49Z"/><path class="cls-33" d="M1121.74,875.4a2.55,2.55,0,0,0-5.1,0,2.55,2.55,0,1,0,5.1,0Zm-2.55,6a6,6,0,1,1,4.23-10.23,6,6,0,0,1-4.23,10.23Zm15.6,3.17a2.54,2.54,0,0,0-2.55,2.56,2.53,2.53,0,0,0,2.55,2.56,2.49,2.49,0,0,0,1.81-.74,2.54,2.54,0,0,0,.75-1.82,2.5,2.5,0,0,0-.75-1.81A2.46,2.46,0,0,0,1134.79,884.57Zm0,8.55a6,6,0,0,1,0-12,6,6,0,0,1,6,6,6,6,0,0,1-6,6Zm-2.55-23.82h2.44l-13,24h-2.49Z"/><path class="cls-33" d="M1121.74,926.49a2.55,2.55,0,0,0-5.1,0,2.55,2.55,0,1,0,5.1,0Zm-2.55,6a6,6,0,1,1,4.23-10.23,6,6,0,0,1-4.23,10.23Zm15.6,3.16a2.56,2.56,0,0,0-2.55,2.57,2.53,2.53,0,0,0,2.55,2.56,2.49,2.49,0,0,0,1.81-.74,2.54,2.54,0,0,0,.75-1.82,2.5,2.5,0,0,0-.75-1.81A2.47,2.47,0,0,0,1134.79,935.65Zm0,8.56a6,6,0,0,1,0-12,6,6,0,0,1,6,6,6,6,0,0,1-6,6Zm-2.55-23.82h2.44l-13,24h-2.49Z"/><path class="cls-33" d="M1121.74,977.58a2.55,2.55,0,0,0-5.1,0,2.55,2.55,0,1,0,5.1,0Zm-2.55,6a6,6,0,1,1,4.23-10.23,6,6,0,0,1-4.23,10.23Zm15.6,3.16a2.57,2.57,0,0,0,0,5.13,2.46,2.46,0,0,0,1.81-.75,2.56,2.56,0,0,0,0-3.62A2.47,2.47,0,0,0,1134.79,986.74Zm0,8.56a6,6,0,0,1,0-12,6,6,0,0,1,6,6,6,6,0,0,1-6,6Zm-2.55-23.82h2.44l-13,24h-2.49Z"/><g id="path8842"><path class="cls-34" d="M1288.37,292.75s-3.66-39.75-40.31-112.93l-10.88-32.51-88.12,3.43-6.28,39c-45-11.34-97.61-17.87-153.88-17.87S880,178.4,835,189.74l-6.28-39-88.12-3.43-10.88,32.51C693.08,253,689.42,292.75,689.42,292.75v4.9c0,69.48,134.08,125.79,299.48,125.79s299.47-56.31,299.47-125.79v-4.9"/></g><g id="path88010"><path class="cls-35" d="M689.42,385.77l78-41.25c33.78,13.43,78.16,13.14,108.19,35.29,76.09,56.13,46.12,84.83,76.86,156.11,11.76,27.26,43.42,42.45,54.35,70.29,52.43,133.48,17.76,292.17,12.65,430.63-.73,19.76,1.67,72.89,2.32,127.1-10.79.54-21.78.83-32.91.83-165.4,0-299.48-62.28-299.48-131.76Z"/></g><path id="path88011" class="cls-36" d="M689.42,551.7c50,53.33,93.13,113.78,143.14,166.79,109.27,115.84,252.34,196.48,396,262.89,11,5.11,32.92,12.37,59.81,20.81V1033a54.26,54.26,0,0,1-.74,8.9c-2.38,14.46-10.33,27.35-20,38-1.48,1.64-3,3.22-4.57,4.78q-3,3-6.19,5.74-4,3.46-8.15,6.65c-3.55,2.73-7.22,5.3-11,7.77-4.85,3.19-9.83,6.18-14.9,9-6.43,3.56-13,6.83-19.65,9.9h0c-32.1-19.79-61.16-39.82-81.72-51C1051,1034.38,976.13,1002.32,910,956.35c-68.55-47.64-147.7-111.91-220.56-184.67ZM772,148.54c87.44,92.34,190.55,172.27,263.18,214.26,76.35,44.14,167.58,68.1,251.25,93.52l1.92.58v502c-33-13.21-64.22-28.27-90.75-40.33C1131.16,888.36,1068,857.21,1010.73,811,891.51,714.64,786.38,603.56,689.42,485.39V292.76s3.66-39.75,40.32-112.94l10.87-32.51Z"/><path class="cls-19" d="M699,330.48s157.19,164.81,505.91,52.3c0,0-151.11,47.72-290.43,24.06S699,330.48,699,330.48Z"/><g id="path8882"><path class="cls-20" d="M1255.69,151.25l-7.14-11.05c-14-52.49-124.32-82.32-259.65-82.32s-247,31.66-261,84.14l-5.79,9.23,6.26,22.66c14.37,52.31,125.51,93,260.54,93s246.16-40.71,260.53-93l6.26-22.66"/></g><g id="path8922"><path class="cls-25" d="M1260.78,139.13l-7.27-11.27C1239.28,74.37,1126.81,44,988.9,44s-251.76,32.27-266,85.75l-5.9,9.41,6.38,23.08C738,215.52,851.29,257,988.9,257s250.86-41.49,265.5-94.8l6.38-23.08"/></g><g id="path8962"><path class="cls-21" d="M1262.23,127.86c0,60.19-122.38,109-273.33,109s-273.33-48.8-273.33-109,122.37-109,273.33-109,273.33,48.8,273.33,109"/></g><g id="path8982"><path class="cls-37" d="M1248.06,127.86c0,53.06-116,96.08-259.16,96.08s-259.17-43-259.17-96.08,116-96.08,259.17-96.08,259.16,43,259.16,96.08"/></g><g id="path9002"><path class="cls-22" d="M729.73,127.79c0,20.14,16.75,38.82,45.32,54.26l31.48-25L786.08,68c-35.24,16.41-56.35,37.17-56.35,59.78"/></g><g id="path9022"><path class="cls-23" d="M988.9,223.94c103.17,0,192.24-22.35,233.94-54.7-11.1-44.29-111.58-79-233.94-79S766.06,125,755,169.24c41.71,32.35,130.78,54.7,233.95,54.7"/></g><g id="path9042"><path class="cls-21" d="M989,223.94c93.14,0,174.66-18.25,220.34-45.59-.15-1.09-.27-2.16-.54-3.3C1198.37,133.44,1104,100.86,989,100.86s-209.36,32.58-219.8,74.19c-.34,1.09-.52,2.11-.77,3.17,45.64,27.41,127.28,45.72,220.57,45.72"/></g><g id="path9062"><path class="cls-24" d="M1124,133.32c-22.32-10.53-59-14.84-84.44-10.22h0L880.63,139.71l-.72.09-.4,0h0a167.23,167.23,0,0,0-16.8,3c-43.66,10.27-46.16,34.12-5.58,53.27S966,222.42,1009.68,212.15a100.26,100.26,0,0,0,14-4.29l0,0,.25-.11.52-.21L1121,164.83l3.56-1.59c21.58-6.42,21.72-19.39-.61-29.92"/></g><g id="path9082"><path class="cls-21" d="M987.67,188.54c-20,4.71-51.72,1.17-69.57-7.94-15.57-7.94-14.82-17.72,1.74-22.39.89-.24,1.81-.48,2.76-.7,5.9-1.33.18-5.29-7.22-4.93a104.84,104.84,0,0,0-25.88,4.08c-20.21,6.33-21.56,18.5-3.21,28.91,24.05,13.64,70.06,19.15,98.76,12.41,6.21-1.46,11.06-3.36,14.55-5.58s-5.71-5.37-11.56-4l-.37.09"/></g><g id="path9102"><path class="cls-21" d="M964,213.71c-30,0-65.88-6.45-88-16.87-19.7-9.3-29.47-18.37-29.87-27.74-.28-6.5,4-12.37,12.64-17.42,9.92-5.77,27.06-9.07,50.94-9.81,13.75-.41,22.1-.18,35.43,2.47l1,.17-1.31,7.86-1.13-.19c-12.76-2.54-20.38-2.78-33.76-2.35-22.24.69-38.56,3.71-47.21,8.74-4.06,2.37-8.87,6.06-8.69,10.19.12,2.74,2.82,10.25,25.32,20.87,27.72,13.08,80.4,19.76,110.54,14,21.55-4.11,27.84-9.57,28.17-12.15.25-2-2.95-5.91-12.8-10.55l-27.06-12.77,3.38-7.21,27.06,12.77c12.49,5.9,18.15,12,17.3,18.76-1.06,8.42-12.7,14.81-34.57,19A149.31,149.31,0,0,1,964,213.71"/></g><g id="path9122"><path class="cls-21" d="M1014,168.54l-35.22,8.29c-6.82,1.6-18.27.1-25.59-3.35s-7.72-7.55-.9-9.16L987.54,156c6.81-1.6,18.27-.1,25.58,3.35s7.72,7.55.9,9.15"/></g><g id="path9142"><path class="cls-25" d="M1004.65,161.38c3.37,1.6,3.16,3.57-.47,4.43a22.46,22.46,0,0,1-12.68-1.33c-3.37-1.6-3.16-3.58.47-4.43a22.46,22.46,0,0,1,12.68,1.33"/></g><g id="path9162"><path class="cls-34" d="M1116.62,122c10.06,3.81,10.23,10.39.36,14.69s-26,4.7-36.09.88l-35.53-13.45c-10.06-3.81-10.22-10.38-.36-14.68s26-4.7,36.09-.89Zm-64,42.73-9.91,4.33c-19.49,8.5-51.4,9.28-71.27,1.76s-20.19-20.51-.71-29l9.92-4.33c19.48-8.49,51.39-9.28,71.26-1.75S1072.12,156.23,1052.63,164.72Zm-30.33-57.55-71.71,31.25c-27.57,12-27.12,30.4,1,41.05s73.26,9.53,100.82-2.49l71.71-31.26c27.57-12,27.12-30.4-1-41s-73.27-9.53-100.83,2.49"/></g><g id="path9182"><path class="cls-21" d="M1116.45,115.15c10.07,3.8,10.23,10.38.36,14.68s-26,4.7-36.09.89l-35.53-13.45c-10.06-3.81-10.22-10.39-.35-14.68s26-4.71,36.08-.9Zm-64,42.73-9.92,4.32c-19.48,8.5-51.39,9.28-71.27,1.77s-20.19-20.52-.71-29l9.92-4.33c19.49-8.49,51.39-9.28,71.27-1.75S1072,149.39,1052.47,157.88Zm-30.34-57.56-71.71,31.26c-27.57,12-27.12,30.39,1,41s73.26,9.54,100.83-2.48l71.7-31.27c27.57-12,27.13-30.39-1-41s-73.26-9.54-100.83,2.48"/></g><g id="path8723"><path class="cls-10" d="M858.73,1336.75c0,58-111.83,109.89-249.78,109.89s-249.79-51.94-249.79-109.89S471,1231.84,609,1231.84s249.78,47,249.78,104.91"/></g><g id="path8743"><path class="cls-11" d="M858.61,1337.13c0-22.13-16.35-42.65-44.2-59.57v94.27l-5.89,13.48s-8.1,19.79-47.43,37.47a20.17,20.17,0,0,0-3.1,1.69c61.07-20.55,100.62-52.89,100.62-87.34"/></g><g id="path8763"><path class="cls-30" d="M901.61,1292.61c0,67.89-131,128.75-292.66,128.75s-292.66-60.86-292.66-128.75,131-122.93,292.66-122.93,292.66,55,292.66,122.93"/></g><g id="path88012"><path class="cls-31" d="M908.42,542.14H309.47v735.35c0,69.48,134.08,131.75,299.48,131.75S908.42,1347,908.42,1277.49V542.14"/></g><path id="path88013" class="cls-32" d="M309.47,747.41c5.38-1.1,10.31-2,14.43-2.78,47.48-8.85,99.32-11.55,145.47,5C519.79,767.72,561.94,801.94,616,811c58.9,9.89,121.06,8.49,176.7-14.81l-6.59,485.58c-5.68,3-99.36,58.66-245.07,31.84-61.12-11.25-122.46-46.7-175.18-78.52-16.88-10.18-36.19-20.07-56.42-26.73Z"/><path class="cls-14" d="M696.13,1227.38c-54.22,14.2-103.82,7.35-103.82,7.35l-5.48-.76-1.53,11,5.5.76s50,7,105.33-6.88Zm-238.56-69v12.06c34,13.8,121.78,41.45,238.56,18.39v-11.35C575.69,1201.82,486.58,1170.78,457.57,1158.36Zm0-49.79v12.06c34,13.8,121.78,41.44,238.56,18.38v-11.35C575.69,1152,486.58,1121,457.57,1108.57Zm0-49.79v12c34,13.81,121.78,41.46,238.56,18.39v-11.35C575.69,1102.23,486.58,1071.19,457.57,1058.78Zm0-49.81V1021c34,13.8,121.78,41.45,238.56,18.39v-11.35C575.69,1052.44,486.58,1021.39,457.57,1009Z"/><path class="cls-33" d="M741.79,1017.71a2.48,2.48,0,0,0-.75-1.81,2.55,2.55,0,0,0-3.61,0,2.48,2.48,0,0,0-.75,1.81,2.56,2.56,0,0,0,2.56,2.56,2.4,2.4,0,0,0,1.8-.75A2.45,2.45,0,0,0,741.79,1017.71Zm-2.55,6a6,6,0,0,1-6-6,6,6,0,1,1,12,0,6,6,0,0,1-6,6Zm15.6,3.16a2.54,2.54,0,0,0-2.55,2.57,2.53,2.53,0,0,0,2.55,2.55,2.45,2.45,0,0,0,1.81-.74,2.5,2.5,0,0,0,.75-1.81,2.54,2.54,0,0,0-.75-1.82A2.5,2.5,0,0,0,754.84,1026.87Zm0,8.56a6,6,0,1,1,4.22-1.76A5.75,5.75,0,0,1,754.84,1035.43Zm-2.55-23.82h2.43l-13,24h-2.49Z"/><path class="cls-33" d="M741.79,1068.8A2.48,2.48,0,0,0,741,1067a2.55,2.55,0,0,0-3.61,0,2.48,2.48,0,0,0-.75,1.81,2.56,2.56,0,0,0,2.56,2.56,2.4,2.4,0,0,0,1.8-.75A2.45,2.45,0,0,0,741.79,1068.8Zm-2.55,6a6,6,0,0,1-6-6,6,6,0,1,1,12,0,6,6,0,0,1-6,6Zm15.6,3.16a2.54,2.54,0,0,0-2.55,2.57,2.53,2.53,0,0,0,2.55,2.55,2.45,2.45,0,0,0,1.81-.74,2.5,2.5,0,0,0,.75-1.81,2.54,2.54,0,0,0-.75-1.82A2.5,2.5,0,0,0,754.84,1078Zm0,8.55a6,6,0,1,1,4.22-1.75A5.74,5.74,0,0,1,754.84,1086.51Zm-2.55-23.81h2.43l-13,24h-2.49Z"/><path class="cls-33" d="M741.79,1119.89a2.48,2.48,0,0,0-.75-1.81,2.55,2.55,0,0,0-3.61,0,2.48,2.48,0,0,0-.75,1.81,2.56,2.56,0,0,0,2.56,2.56,2.4,2.4,0,0,0,1.8-.75A2.45,2.45,0,0,0,741.79,1119.89Zm-2.55,6a6,6,0,0,1-6-6,6,6,0,1,1,12,0,6,6,0,0,1-6,6Zm15.6,3.16a2.54,2.54,0,0,0-2.55,2.57,2.56,2.56,0,1,0,5.11,0,2.54,2.54,0,0,0-.75-1.82A2.5,2.5,0,0,0,754.84,1129.05Zm0,8.55a6,6,0,1,1,4.22-1.75A5.74,5.74,0,0,1,754.84,1137.6Zm-2.55-23.81h2.43l-13,24h-2.49Z"/><path class="cls-33" d="M741.79,1171a2.48,2.48,0,0,0-.75-1.81,2.55,2.55,0,0,0-3.61,0,2.48,2.48,0,0,0-.75,1.81,2.56,2.56,0,0,0,2.56,2.56,2.4,2.4,0,0,0,1.8-.75A2.45,2.45,0,0,0,741.79,1171Zm-2.55,6a6,6,0,0,1-6-6,6,6,0,1,1,12,0,6,6,0,0,1-6,6Zm15.6,3.16a2.56,2.56,0,1,0,0,5.12,2.49,2.49,0,0,0,1.81-.74,2.57,2.57,0,0,0-1.81-4.38Zm0,8.55a6,6,0,1,1,4.22-1.75A5.74,5.74,0,0,1,754.84,1188.69Zm-2.55-23.81h2.43l-13,24h-2.49Z"/><path class="cls-33" d="M741.79,1222.07a2.48,2.48,0,0,0-.75-1.81,2.55,2.55,0,0,0-3.61,0,2.48,2.48,0,0,0-.75,1.81,2.56,2.56,0,0,0,2.56,2.56,2.4,2.4,0,0,0,1.8-.75A2.45,2.45,0,0,0,741.79,1222.07Zm-2.55,6a6,6,0,0,1-6-6,6,6,0,1,1,12,0,6,6,0,0,1-6,6Zm15.6,3.17a2.56,2.56,0,1,0,0,5.12,2.49,2.49,0,0,0,1.81-.74,2.57,2.57,0,0,0-1.81-4.38Zm0,8.55a6,6,0,1,1,4.22-1.75A5.74,5.74,0,0,1,754.84,1239.78ZM752.29,1216h2.43l-13,24h-2.49Z"/><g id="path8843"><path class="cls-34" d="M908.42,537.24s-3.66-39.76-40.31-112.94l-10.88-32.51-88.12,3.44-6.28,39c-45-11.35-97.61-17.88-153.89-17.88S500,422.88,455.06,434.23l-6.28-39-88.12-3.44L349.78,424.3c-36.65,73.18-40.31,112.94-40.31,112.94v4.9c0,69.47,134.08,125.78,299.47,125.78s299.48-56.31,299.48-125.78v-4.9"/></g><path id="path88014" class="cls-38" d="M309.47,796.18C359.42,849.52,402.6,910,452.61,963c109.27,115.85,252.34,196.49,396,262.89,11,5.12,32.91,12.37,59.81,20.81v30.83a55.5,55.5,0,0,1-.74,8.91c-2.38,14.46-10.33,27.34-20,38-1.48,1.64-3,3.21-4.58,4.77q-3,3-6.18,5.74-4,3.46-8.15,6.66c-3.55,2.72-7.22,5.3-11,7.76-4.85,3.2-9.83,6.18-14.91,9-6.42,3.55-13,6.82-19.64,9.89h0c-32.11-19.79-61.16-39.81-81.72-51-70.42-38.4-145.32-70.45-211.47-116.42-68.55-47.65-147.7-111.91-220.56-184.68ZM392.07,393c87.44,92.34,190.55,172.27,263.17,214.26,76.36,44.15,167.59,68.1,251.26,93.52l1.92.59v502c-33-13.22-64.22-28.28-90.75-40.33-66.46-30.23-129.65-61.38-186.89-107.63C511.56,959.13,406.42,848,309.47,729.88V537.24s3.66-39.75,40.32-112.94l10.87-32.5Z"/><path class="cls-19" d="M319,575S476.2,739.77,824.93,627.27c0,0-151.11,47.71-290.43,24.06S319,575,319,575Z"/><g id="path8883"><path class="cls-20" d="M875.74,395.74l-7.14-11.06c-14-52.48-124.32-82.32-259.66-82.32s-247,31.66-261,84.15l-5.79,9.23,6.26,22.65c14.37,52.32,125.51,93,260.53,93s246.17-40.71,260.54-93l6.26-22.65"/></g><g id="path8923"><path class="cls-25" d="M880.83,383.61l-7.27-11.27c-14.23-53.48-126.7-83.89-264.62-83.89s-251.75,32.27-266,85.76l-5.9,9.4,6.38,23.09c14.64,53.31,127.9,94.8,265.5,94.8S859.81,460,874.45,406.7l6.38-23.09"/></g><g id="path8963"><path class="cls-21" d="M882.27,372.34c0,60.2-122.37,109-273.33,109s-273.32-48.79-273.32-109,122.37-109,273.32-109,273.33,48.79,273.33,109"/></g><g id="path8983"><path class="cls-37" d="M868.11,372.34c0,53.07-116,96.09-259.17,96.09s-259.16-43-259.16-96.09,116-96.07,259.16-96.07,259.17,43,259.17,96.07"/></g><g id="path9003"><path class="cls-22" d="M349.78,372.27c0,20.15,16.75,38.82,45.31,54.27l31.49-25-20.45-89c-35.24,16.41-56.35,37.18-56.35,59.78"/></g><g id="path9023"><path class="cls-23" d="M608.94,468.43c103.17,0,192.25-22.35,233.95-54.71-11.11-44.28-111.58-79-233.95-79s-222.83,34.68-233.94,79c41.7,32.36,130.78,54.71,233.94,54.71"/></g><g id="path9043"><path class="cls-21" d="M609.06,468.43c93.14,0,174.66-18.25,220.34-45.6-.16-1.09-.27-2.15-.54-3.29-10.44-41.61-104.84-74.19-219.8-74.19s-209.36,32.58-219.8,74.19c-.34,1.09-.52,2.11-.77,3.16,45.64,27.42,127.28,45.73,220.57,45.73"/></g><g id="path9063"><path class="cls-24" d="M744,377.8c-22.32-10.53-59-14.83-84.44-10.21h0L500.68,384.2l-.73.08-.39.05h0a161.74,161.74,0,0,0-16.8,3c-43.66,10.26-46.16,34.11-5.58,53.27s108.87,26.35,152.53,16.08a101.63,101.63,0,0,0,14-4.29h0l.25-.1.52-.22,96.59-42.72,3.56-1.6c21.58-6.42,21.71-19.38-.61-29.92"/></g><g id="path9083"><path class="cls-21" d="M607.72,433c-20,4.72-51.72,1.17-69.57-7.94-15.57-7.94-14.82-17.71,1.73-22.38.9-.25,1.82-.49,2.77-.7,5.9-1.34.18-5.29-7.22-4.94a104.81,104.81,0,0,0-25.88,4.09c-20.21,6.32-21.56,18.49-3.21,28.9,24.05,13.65,70.05,19.16,98.76,12.41,6.2-1.46,11.06-3.36,14.54-5.57s-5.7-5.37-11.55-4l-.37.09"/></g><g id="path9103"><path class="cls-21" d="M584.09,458.19c-30.05,0-65.88-6.45-88-16.87-19.7-9.29-29.47-18.37-29.88-27.73-.28-6.51,4-12.37,12.65-17.42,9.92-5.78,27.06-9.08,50.94-9.82,13.74-.41,22.1-.17,35.43,2.47l1,.18L565,396.85l-1.13-.19c-12.77-2.53-20.38-2.77-33.76-2.34-22.24.68-38.56,3.7-47.21,8.74-4.06,2.36-8.87,6.05-8.69,10.18.11,2.74,2.82,10.26,25.32,20.87,27.71,13.08,80.4,19.77,110.54,14,21.54-4.11,27.84-9.58,28.17-12.16.24-2-3-5.9-12.8-10.54l-27.06-12.77,3.38-7.21,27.06,12.77c12.49,5.89,18.14,12,17.29,18.76-1.06,8.41-12.69,14.8-34.56,19a149.44,149.44,0,0,1-27.44,2.25"/></g><g id="path9123"><path class="cls-21" d="M634.07,413l-35.23,8.29c-6.81,1.6-18.26.11-25.58-3.35s-7.72-7.54-.9-9.15l35.23-8.29c6.81-1.6,18.26-.1,25.58,3.35s7.72,7.55.9,9.15"/></g><g id="path9143"><path class="cls-25" d="M624.69,405.87c3.37,1.59,3.17,3.57-.46,4.43A22.55,22.55,0,0,1,611.55,409c-3.37-1.59-3.16-3.58.47-4.43a22.52,22.52,0,0,1,12.67,1.34"/></g><g id="path9163"><path class="cls-34" d="M736.67,366.47c10.06,3.81,10.22,10.39.36,14.69s-26,4.7-36.09.88l-35.53-13.45c-10.06-3.81-10.22-10.38-.36-14.68s26-4.7,36.09-.89Zm-64,42.74-9.92,4.32c-19.48,8.5-51.39,9.28-71.26,1.76s-20.19-20.51-.71-29l9.92-4.32c19.48-8.49,51.39-9.28,71.26-1.76S692.17,400.72,672.68,409.21Zm-30.34-57.56-71.7,31.26c-27.57,12-27.12,30.39,1,41s73.27,9.53,100.83-2.49l71.71-31.26c27.56-12,27.12-30.39-1-41s-73.27-9.53-100.84,2.49"/></g><g id="path9183"><path class="cls-21" d="M736.5,359.63c10.06,3.81,10.23,10.38.36,14.68s-26,4.7-36.09.89l-35.53-13.45c-10.06-3.81-10.22-10.39-.35-14.68s26-4.71,36.08-.89Zm-64,42.73-9.92,4.33c-19.49,8.5-51.39,9.28-71.27,1.76s-20.19-20.51-.71-29l9.92-4.32c19.48-8.5,51.39-9.28,71.26-1.76S692,393.87,672.52,402.36ZM642.18,344.8l-71.71,31.26c-27.57,12-27.12,30.4,1,41.05s73.26,9.53,100.82-2.49L744,383.36c27.57-12,27.12-30.4-1-41s-73.26-9.53-100.83,2.48"/></g><g id="path8724"><path class="cls-10" d="M1596,1575.38c90.8-24.4,219.3,130.08,277.4,347.64s23.83,415.81-67,440.22-211.51-132.18-269.62-349.74-31.61-413.71,59.19-438.12"/></g><g id="path8744"><path class="cls-11" d="M1596.59,1575.43c-34.67,9.32-59.94,43.74-74.73,94.78l147.72-39.71,23.61,3.62s34.41,4.43,78.68,59a33.6,33.6,0,0,0,4,4.18c-57.93-87.66-125.26-136.4-179.24-121.89"/></g><g id="path8764"><path class="cls-39" d="M1508.72,1526.36c106.38-28.59,256.94,152.41,325,407.31s27.9,487.17-78.48,515.76-247.81-154.85-315.89-409.75-37-484.72,69.35-513.32"/></g><g id="path88015"><path class="cls-40" d="M329.89,1831.73,582.17,2776.3l1152.28-309.75c108.86-29.26,150-266.94,80.3-527.78S1591,1492.72,1482.16,1522L329.89,1831.73"/></g><path id="path88016" class="cls-41" d="M903.83,2689.83c-4-8-7.49-15.4-10.43-21.58-33.88-71.15-59.94-151.77-53.44-231.52,7.11-87.13,43-168,34.42-257.15-9.32-97-37.69-194.48-97.65-272.42L1540.4,1713c7,7.71,133.77,132,153.11,373.08,8.12,101.12-21.59,212.8-49.24,309.33-8.85,30.91-16.2,65.54-18.12,100.24Z"/><path class="cls-14" d="M1493.06,1877.89c45.08,79.52,55.25,160.62,55.25,160.62l1.11,9,17.92-2.25-1.12-9s-10.16-81.73-55.15-163.2Zm-7.67,405.29,18.89-5.08c7.33-59.37,13.67-209.51-71.67-384l-17.78,4.78C1503.74,2078.59,1492.63,2232.19,1485.39,2283.18Zm-78,21,18.9-5.08c7.32-59.36,13.65-209.5-71.67-384l-17.8,4.78C1425.72,2099.56,1414.59,2253.17,1407.36,2304.15Zm-78,21,18.88-5.07c7.33-59.37,13.67-209.51-71.67-384l-17.78,4.78C1347.68,2120.54,1336.57,2274.14,1329.34,2325.12Zm-78,21,18.9-5.08c7.32-59.36,13.65-209.5-71.67-384l-17.78,4.78C1269.66,2141.52,1258.55,2295.11,1251.3,2346.1Z"/><path class="cls-42" d="M1145.27,1894.19a4.19,4.19,0,0,0-2.93,5.1,4.14,4.14,0,0,0,7.61,1,4.17,4.17,0,0,0-4.68-6.11Zm10.48,1.5a9.73,9.73,0,1,1-18.79,5,9.74,9.74,0,0,1,6.87-11.93,9.73,9.73,0,0,1,11.92,6.89Zm-1.61-25.93a4.17,4.17,0,1,0,.41-3.17A4,4,0,0,0,1154.14,1869.76Zm13.4-3.61a9.5,9.5,0,0,1-1,7.4,9.78,9.78,0,1,1,1-7.4Zm-36.25,14.06-1-3.84,43,10.35,1,3.92Z"/><path class="cls-42" d="M1225.33,1872.67a4.17,4.17,0,0,0,2.15,8.06,4.17,4.17,0,0,0,2.94-5.12,4.16,4.16,0,0,0-5.09-2.94Zm10.47,1.5a9.73,9.73,0,1,1-4.54-5.92A9.37,9.37,0,0,1,1235.8,1874.17Zm-1.61-25.93a4,4,0,0,0,1.94,2.53,4,4,0,0,0,3.15.41,4,4,0,0,0,2.54-1.94,4.11,4.11,0,0,0,.4-3.16,4,4,0,0,0-1.93-2.54,4.17,4.17,0,0,0-6.1,4.7Zm13.41-3.6a9.74,9.74,0,0,1-6.87,11.93,9.76,9.76,0,1,1,6.87-11.93Zm-36.26,14-1-3.84,43,10.35,1.05,3.92Z"/><path class="cls-42" d="M1305.38,1851.15a4.19,4.19,0,0,0-2.93,5.1,4.14,4.14,0,0,0,7.61,1,4.17,4.17,0,0,0-4.68-6.11Zm10.48,1.5a9.73,9.73,0,1,1-18.79,5,9.5,9.5,0,0,1,1-7.4,9.72,9.72,0,0,1,17.82,2.35Zm-1.61-25.93a4,4,0,0,0,1.94,2.53,4,4,0,0,0,3.15.41,4,4,0,0,0,2.53-1.93,4.1,4.1,0,0,0,.4-3.17,4.13,4.13,0,0,0-5.08-3,4.17,4.17,0,0,0-2.94,5.12Zm13.4-3.6a9.72,9.72,0,1,1-17.8-2.36,9.7,9.7,0,0,1,17.8,2.36Zm-36.25,14.05-1-3.84,43,10.35,1,3.92Z"/><path class="cls-42" d="M1385.44,1829.64a4.17,4.17,0,0,0,2.15,8,4.17,4.17,0,0,0,2.94-5.12,4.14,4.14,0,0,0-5.09-2.93Zm10.47,1.49a9.73,9.73,0,1,1-4.54-5.92A9.36,9.36,0,0,1,1395.91,1831.13Zm-1.61-25.93a4.08,4.08,0,0,0,1.94,2.53,4,4,0,0,0,3.16.41,4.07,4.07,0,0,0,2.53-1.93,4.14,4.14,0,0,0,.4-3.17,4,4,0,0,0-1.93-2.54,4.17,4.17,0,0,0-6.1,4.7Zm13.41-3.6a9.74,9.74,0,0,1-6.87,11.93,9.76,9.76,0,1,1,6.87-11.93Zm-36.25,14.05-1-3.84,43,10.35,1,3.92Z"/><path class="cls-42" d="M1465.49,1808.12a4.16,4.16,0,1,0,3.16.41A4,4,0,0,0,1465.49,1808.12Zm10.48,1.49a9.73,9.73,0,1,1-18.79,5.05,9.5,9.5,0,0,1,1-7.4,9.72,9.72,0,0,1,17.82,2.35Zm-1.61-25.93a4,4,0,0,0,1.94,2.53,4.18,4.18,0,0,0,5.68-1.52,4.1,4.1,0,0,0,.4-3.17,4.13,4.13,0,0,0-5.08-3,4.17,4.17,0,0,0-2.94,5.12Zm13.4-3.6a9.74,9.74,0,0,1-6.87,11.93,9.33,9.33,0,0,1-7.39-1,9.8,9.8,0,0,1-3.54-13.33,9.69,9.69,0,0,1,13.28-3.57A9.45,9.45,0,0,1,1487.76,1780.08Zm-36.25,14.05-1-3.84,43,10.35,1,3.92Z"/><g id="path8844"><path class="cls-39" d="M322.21,1833.79s-60.75,22.52-160,111.15l-46.36,30.84,42.5,137.53,63.76-6.52c1.17,75.7,13.1,161.45,36.81,250.21s56.1,169,92.82,235.15l-58.46,26.33L325,2758.9l55.52,3.46c130.11,27,194,16,194,16l7.67-2.06C691,2747,722.8,2511.86,653.13,2251s-214.38-448.56-323.24-419.3l-7.68,2.06"/></g><g id="path88017"><path class="cls-43" d="M1846.25,2118.61c14.76,182.36-28.86,325.64-111.8,347.93l-660,177.42c-127.06,2-251.62.82-378.53-5.93-88.93-4.73-176.69-12.13-263.88-31.23-31.22-6.84-59.91-13.9-85-23.31-30.31-56.16-57.47-122-79-194.16,16.72,5.38,35.81,15,47.9,16.25,51.86,5.37,144.11-5,192.52-23.14,38.14-14.27,84.57-35.62,113.09-65.87,15.8-16.77,15.95-62.93,42.91-61.12,12,.81,32.17,46.08,39.54,54,27.85,29.89,71.21,50.33,109.5,62.8,99.05,32.26,363-19.37,464.58-42.35,152.06-34.39,294.78-93.91,438.24-153.74C1747.51,2163.17,1797.37,2137.71,1846.25,2118.61Z"/></g><ellipse class="cls-44" cx="781.96" cy="1788.26" rx="379.5" ry="58.97" transform="translate(-436.69 263.72) rotate(-15.02)"/><ellipse class="cls-45" cx="1218.67" cy="1672.93" rx="180.94" ry="49.71" transform="matrix(0.97, -0.26, 0.26, 0.97, -392.01, 373.1)"/><path id="path88018" class="cls-46" d="M980.25,2669.29c62.53-101.24,139.06-194.8,201.06-296,135.5-221.12,201.6-480.72,245.14-735.25,3.36-19.57,5.52-57.12,7.42-103.09l48.3-13a88.21,88.21,0,0,1,14.27-2.58c23.66-2.33,47.2,4.78,68,15.57,3.19,1.64,6.3,3.37,9.4,5.2,3.94,2.32,7.8,4.78,11.6,7.33q7.1,4.8,13.87,10c5.76,4.46,11.34,9.16,16.77,14,7,6.3,13.84,12.9,20.4,19.71,8.27,8.63,16.16,17.61,23.78,26.81h0c-17.49,59-36.63,113.23-45.54,150.37-30.51,127.24-49.19,258.86-93.36,382.54-45.79,128.18-113.15,280.06-196.48,425.62Zm-666.53,39.55c107.86-176.79,189.68-373.06,224.88-505.28,37-139,36.13-293,40.72-435.63l.11-3.28,786.64-211.46c-6.79,57.67-17.25,113.19-25,160.1-19.38,117.55-41.57,230.33-89.92,340.07-100.73,228.6-230.51,441.19-374.83,643.86L574.5,2778.36s-63.83,11-193.95-16L325,2758.9Z"/><path class="cls-19" d="M629.59,2747.42s192-317.31-131.14-819.87c0,0,138.41,218.2,160,447.88S629.59,2747.42,629.59,2747.42Z"/><g id="path8884"><path class="cls-20" d="M114.25,1944.93l-14.32,15.92C23.57,2005,23.3,2191.59,80.31,2405S234,2781.27,322.1,2781.18l16.9,5.24L371.86,2767c75.93-44.69,92.9-237.12,36-450.05s-167.48-371.07-255.51-371.7l-38.13-.33"/></g><g id="path8924"><path class="cls-47" d="M93.11,1942l-14.6,16.22c-77.82,45-78.09,235.14-20,452.64s156.6,383.44,246.4,383.35l17.23,5.34,33.48-19.78c77.37-45.55,94.68-241.64,36.72-458.65S221.67,1943,132,1942.35L93.11,1942"/></g><g id="path8964"><path class="cls-21" d="M74.84,1944.48c94.32-25.35,222.32,147.09,285.91,385.15s38.67,451.6-55.65,476.95S82.77,2659.5,19.19,2421.44s-38.67-451.6,55.65-477"/></g><g id="path8984"><path class="cls-47" d="M80.8,1966.82c83.15-22.35,199.44,142.51,259.73,368.24s41.75,426.84-41.4,449.19S99.71,2641.73,39.42,2416-2.35,1989.17,80.8,1966.82"/></g><g id="path9024"><path class="cls-23" d="M340.53,2335.06c-43.46-162.7-116-293.76-184.26-345.9-64.72,36.17-76.73,209.23-25.19,402.2s148.19,336.82,222.27,335.69c33.13-79.4,30.63-229.29-12.82-392"/></g><g id="path9044"><path class="cls-21" d="M340.48,2334.88C301.25,2188,238.32,2067.12,176.23,2006.59c-1.65.71-3.27,1.35-4.94,2.26-60.81,34-72.09,196.58-23.67,377.87s139.23,316.45,208.83,315.38c1.86.09,3.53-.06,5.28-.11,23.74-83.52,18-220-21.25-367.11"/></g><g id="path9064"><path class="cls-24" d="M141.62,2160.2c-7.1,39.64,1.63,99.37,19.57,137.47v0l93,243.58c.15.36.29.74.45,1.11l.24.6v0a265.6,265.6,0,0,0,11.7,25.25c34.48,64.53,72.9,58.43,85.82-13.64s-4.57-182.8-39.05-247.32A166.58,166.58,0,0,0,300.69,2287l0,0-.27-.35c-.19-.26-.37-.48-.56-.73L192.25,2151.57l-4-4.94c-19.15-31.32-39.52-26.07-46.63,13.57"/></g><g id="path9084"><path class="cls-21" d="M285.57,2351.91c15.83,29.62,23.62,81.07,16.86,113.06-5.89,27.9-21.52,30.84-35.81,6.69-.76-1.31-1.52-2.66-2.26-4.06-4.58-8.74-8.36,1.94-4.7,13.47,4.74,14.94,10.59,28.43,17.31,39.09,18.42,29.2,38.06,26.21,46.64-7.13,11.25-43.67.51-118.54-22.15-161-4.9-9.17-9.93-16-14.86-20.59s-6,11.27-1.33,19.89c.09.18.19.36.3.55"/></g><g id="path9104"><path class="cls-21" d="M335,2378.57c12.66,47.39,17.64,106.62,10.61,145.82-6.26,35-16.36,54.22-30.87,58.8-10.08,3.18-21.06-1.05-32.62-12.6-13.23-13.21-25.62-38.85-36.84-76.21-6.44-21.5-9.58-34.78-11.05-56.91l-.16-1.68,12.86-1.24.18,1.86c1.41,21.2,4.24,33.3,10.55,54.22,10.44,34.8,22.05,59.26,33.58,70.78,5.41,5.41,13.22,11.44,19.62,9.42,4.25-1.34,14.88-8.77,22-48.73,8.82-49.22-2.9-135.11-24.62-180.22-15.52-32.25-26.73-39.88-30.92-39.31-3.17.44-8,7.15-11.13,24.63l-8.61,48.05L244.86,2373l8.61-48.05c4-22.18,11.22-33.69,22.11-35.18,13.64-1.88,28.55,13.78,44.29,46.52,5.77,12,10.86,26.49,15.09,42.32"/></g><g id="path9124"><path class="cls-21" d="M243.13,2318.77,271,2370.84c5.38,10.07,7.85,28.76,5.52,41.75s-8.57,15.35-14,5.29l-27.82-52.07c-5.38-10.07-7.86-28.77-5.53-41.75s8.58-15.36,14-5.29"/></g><g id="path9144"><path class="cls-25" d="M235.87,2336.58c1.07-6,4.26-6.5,7.13-1.14s4.32,14.57,3.25,20.56-4.27,6.5-7.14,1.13-4.32-14.56-3.24-20.55"/></g><g id="path9164"><path class="cls-39" d="M127,2176.58c1.73-17.47,12-20.5,22.86-6.75s18.33,39.06,16.59,56.54l-6.11,61.7c-1.73,17.47-12,20.49-22.86,6.74s-18.32-39-16.59-56.53Zm93.91,82.91,11,13.82c21.52,27.15,36.19,77.14,32.77,111.65s-23.63,40.48-45.15,13.34l-11-13.82c-21.51-27.15-36.18-77.14-32.76-111.65S199.37,2232.34,220.88,2259.49Zm-77.41,72.09,79.18,99.92c30.45,38.41,59,30,63.9-18.88s-15.92-119.55-46.37-158L161,2154.74c-30.45-38.41-59.05-30-63.88,18.87s15.92,119.56,46.36,158"/></g><g id="path9184"><path class="cls-21" d="M116.32,2179.73c1.73-17.48,12-20.5,22.85-6.75s18.33,39.06,16.6,56.53l-6.12,61.7c-1.72,17.48-12,20.5-22.85,6.75s-18.33-39.05-16.6-56.53Zm93.91,82.91,11,13.82c21.52,27.14,36.19,77.13,32.77,111.64s-23.63,40.49-45.15,13.34l-11-13.82c-21.51-27.15-36.19-77.14-32.76-111.65S188.72,2235.49,210.23,2262.64Zm-77.42,72.09L212,2434.64c30.45,38.42,59.05,30,63.89-18.87s-15.91-119.55-46.36-158l-79.19-99.92c-30.45-38.41-59.06-30-63.88,18.86s15.92,119.56,46.35,158"/></g><g id="path8725"><path class="cls-10" d="M2925.36,2056.77c0,94-181.39,178.23-405.14,178.23s-405.16-84.25-405.16-178.23,181.4-170.18,405.16-170.18,405.14,76.19,405.14,170.18"/></g><g id="path8745"><path class="cls-11" d="M2925.16,2057.37c0-35.89-26.52-69.17-71.68-96.62v152.91l-9.56,21.86s-13.13,32.1-76.93,60.78a32.6,32.6,0,0,0-5,2.74c99.06-33.34,163.21-85.79,163.21-141.67"/></g><g id="path8765"><path class="cls-48" d="M2994.9,1985.17c0,110.11-212.52,208.82-474.68,208.82s-474.69-98.71-474.69-208.82,212.53-199.39,474.69-199.39,474.68,89.27,474.68,199.39"/></g><g id="path88019"><path class="cls-49" d="M3006,767.91H2034.48V1960.65c0,112.68,217.47,213.69,485.74,213.69s485.73-101,485.73-213.69V767.91"/></g><path id="path88020" class="cls-50" d="M2034.47,1100.87c8.74-1.8,16.72-3.26,23.4-4.51,77-14.37,161.11-18.74,236,8.11,81.77,29.34,150.14,84.84,237.88,99.57,95.53,16,196.34,13.77,286.6-24l-10.69,787.6c-9.21,4.82-161.15,95.16-397.49,51.64C2311,2001,2211.49,1943.51,2126,1891.9c-27.38-16.52-58.7-32.55-91.52-43.35Z"/><path class="cls-14" d="M2661.62,1879.37c-87.93,23-168.39,11.92-168.39,11.92l-8.89-1.24-2.47,17.89,8.92,1.24s81.05,11.26,170.83-11.17Zm-386.93-112V1787c55.07,22.39,197.52,67.24,386.93,29.83v-18.41C2466.27,1837.91,2321.75,1787.56,2274.69,1767.41Zm0-80.76v19.56c55.07,22.39,197.52,67.22,386.93,29.83v-18.43C2466.27,1757.15,2321.75,1706.78,2274.69,1686.65Zm0-80.76v19.54c55.07,22.39,197.52,67.24,386.93,29.83v-18.41C2466.27,1676.37,2321.75,1626,2274.69,1605.89Zm0-80.78v19.56c55.07,22.39,197.52,67.22,386.93,29.83v-18.41C2466.27,1595.61,2321.75,1545.26,2274.69,1525.11Z"/><path class="cls-51" d="M2735.69,1539.28a4.17,4.17,0,1,0-1.22,2.94A4,4,0,0,0,2735.69,1539.28Zm-4.14,9.73a9.72,9.72,0,1,1,6.85-16.6,9.75,9.75,0,0,1,0,13.74A9.24,9.24,0,0,1,2731.55,1549Zm25.3,5.13a4.16,4.16,0,1,0,0,8.31,4,4,0,0,0,2.93-1.2,4.16,4.16,0,0,0,0-5.89A4,4,0,0,0,2756.85,1554.14Zm0,13.88a9.73,9.73,0,1,1,6.85-2.85A9.37,9.37,0,0,1,2756.85,1568Zm-4.13-38.64h4l-21,38.87h-4Z"/><path class="cls-51" d="M2735.69,1622.15a4.17,4.17,0,1,0-1.22,2.94A3.95,3.95,0,0,0,2735.69,1622.15Zm-4.14,9.73a9.73,9.73,0,1,1,6.85-16.61,9.77,9.77,0,0,1,0,13.75A9.28,9.28,0,0,1,2731.55,1631.88Zm25.3,5.13a4.16,4.16,0,0,0,0,8.31,4,4,0,0,0,2.93-1.21,4.15,4.15,0,0,0,0-5.88A4,4,0,0,0,2756.85,1637Zm0,13.87a9.71,9.71,0,1,1,0-19.42,9.71,9.71,0,0,1,9.7,9.71,9.71,9.71,0,0,1-9.7,9.71Zm-4.13-38.63h4l-21,38.87h-4Z"/><path class="cls-51" d="M2735.69,1705a4.17,4.17,0,1,0-1.22,2.94A3.94,3.94,0,0,0,2735.69,1705Zm-4.14,9.73a9.75,9.75,0,0,1-9.7-9.73,9.69,9.69,0,1,1,16.55,6.87A9.24,9.24,0,0,1,2731.55,1714.74Zm25.3,5.13a4.16,4.16,0,1,0,0,8.31,4,4,0,0,0,2.93-1.2,4.16,4.16,0,0,0,0-5.89A4,4,0,0,0,2756.85,1719.87Zm0,13.88a9.72,9.72,0,0,1,0-19.43,9.73,9.73,0,0,1,9.7,9.72,9.71,9.71,0,0,1-9.7,9.71Zm-4.13-38.63h4l-21,38.86h-4Z"/><path class="cls-51" d="M2735.69,1787.88a4.17,4.17,0,1,0-1.22,2.94A3.95,3.95,0,0,0,2735.69,1787.88Zm-4.14,9.73a9.72,9.72,0,1,1,6.85-16.6,9.75,9.75,0,0,1,0,13.74A9.28,9.28,0,0,1,2731.55,1797.61Zm25.3,5.13a4.13,4.13,0,0,0-4.13,4.16,4.11,4.11,0,0,0,4.13,4.15,4,4,0,0,0,2.93-1.21,4.16,4.16,0,0,0-2.93-7.1Zm0,13.87a9.71,9.71,0,1,1,6.85-2.84A9.36,9.36,0,0,1,2756.85,1816.61Zm-4.13-38.63h4l-21,38.87h-4Z"/><path class="cls-51" d="M2735.69,1870.74a4.17,4.17,0,1,0-1.22,3A3.94,3.94,0,0,0,2735.69,1870.74Zm-4.14,9.73a9.75,9.75,0,0,1-9.7-9.73,9.69,9.69,0,1,1,16.55,6.87A9.24,9.24,0,0,1,2731.55,1880.47Zm25.3,5.14a4.15,4.15,0,1,0,2.93,7.1,4.15,4.15,0,0,0,0-5.88A4,4,0,0,0,2756.85,1885.61Zm0,13.87a9.71,9.71,0,1,1,0-19.42,9.71,9.71,0,0,1,9.7,9.71,9.71,9.71,0,0,1-9.7,9.71Zm-4.13-38.63h4l-21,38.87h-4Z"/><g id="path8845"><path class="cls-48" d="M3006,760s-5.93-64.48-65.38-183.18l-17.64-52.73L2780,529.63l-10.19,63.25c-72.95-18.39-158.31-29-249.6-29s-176.64,10.6-249.59,29l-10.19-63.25-142.93-5.57-17.64,52.73C2040.41,695.49,2034.48,760,2034.48,760v7.94c0,112.69,217.47,204,485.73,204S3006,880.6,3006,767.91V760"/></g><path id="path88021" class="cls-52" d="M2034.47,1180c81,86.5,151.06,184.55,232.16,270.53,177.24,187.9,409.3,318.69,642.31,426.4,17.91,8.3,53.39,20.06,97,33.76v50a89.7,89.7,0,0,1-1.2,14.44c-3.87,23.46-16.77,44.35-32.5,61.71-2.4,2.65-4.86,5.21-7.41,7.74q-4.87,4.8-10,9.31-6.43,5.61-13.22,10.8c-5.76,4.41-11.71,8.59-17.78,12.58-7.86,5.19-16,10-24.18,14.62-10.41,5.76-21.06,11.06-31.86,16l0,0c-52.07-32.1-99.2-64.58-132.54-82.77-114.23-62.29-235.71-114.28-343-188.84C2281,1759,2152.65,1654.8,2034.47,1536.77Zm134-653.92c141.83,149.77,309.06,279.42,426.86,347.53,123.85,71.6,271.82,110.45,407.53,151.69l3.12,1v814.26c-53.59-21.43-104.17-45.86-147.19-65.42-107.8-49-210.3-99.55-303.14-174.56-193.38-156.24-363.9-336.42-521.16-528.08V760s5.94-64.48,65.39-183.19l17.63-52.72Z"/><path class="cls-19" d="M2050,821.16s254.95,267.32,820.57,84.83c0,0-245.09,77.39-471.07,39S2050,821.16,2050,821.16Z"/><g id="path8885"><path class="cls-20" d="M2953,530.46l-11.58-17.94C2918.72,427.4,2739.72,379,2520.21,379s-400.69,51.36-423.34,136.48l-9.39,15,10.15,36.74c23.31,84.85,203.58,150.88,422.58,150.88s399.28-66,422.59-150.88L2953,530.46"/></g><g id="path8925"><path class="cls-53" d="M2961.2,510.79l-11.79-18.28c-23.08-86.75-205.5-136.06-429.2-136.06s-408.34,52.33-431.42,139.09l-9.57,15.25,10.35,37.44C2113.32,634.7,2297,702,2520.21,702s406.9-67.3,430.65-153.77l10.34-37.44"/></g><g id="path8965"><path class="cls-21" d="M2963.55,492.51c0,97.63-198.49,176.78-443.34,176.78s-443.33-79.15-443.33-176.78,198.49-176.77,443.33-176.77,443.34,79.14,443.34,176.77"/></g><g id="path8985"><path class="cls-53" d="M2940.57,492.51c0,86.07-188.2,155.85-420.36,155.85s-420.35-69.78-420.35-155.85,188.2-155.83,420.35-155.83,420.36,69.76,420.36,155.83"/></g><g id="path9005"><path class="cls-22" d="M2099.86,492.4c0,32.67,27.16,63,73.49,88l51.08-40.58-33.17-144.4c-57.16,26.61-91.4,60.29-91.4,97"/></g><g id="path9025"><path class="cls-23" d="M2520.21,648.36c167.34,0,311.81-36.25,379.46-88.73-18-71.83-181-128.07-379.46-128.07s-361.43,56.24-379.45,128.07c67.64,52.48,212.12,88.73,379.45,88.73"/></g><g id="path9045"><path class="cls-21" d="M2520.4,648.36c151.07,0,283.29-29.6,357.39-74-.26-1.77-.45-3.5-.89-5.35-16.92-67.49-170-120.33-356.5-120.33s-339.58,52.84-356.51,120.33c-.55,1.77-.85,3.42-1.25,5.13,74,44.47,206.44,74.17,357.76,74.17"/></g><g id="path9065"><path class="cls-24" d="M2739.32,501.36c-36.21-17.08-95.78-24.05-137-16.56h0l-257.72,26.95-1.18.14-.64.08h0a265.6,265.6,0,0,0-27.25,4.78c-70.82,16.65-74.87,55.33-9.05,86.4s176.59,42.74,247.41,26.09a164.49,164.49,0,0,0,22.66-7l0,0,.4-.17.85-.35,156.67-69.3,5.77-2.58c35-10.41,35.22-31.45-1-48.54"/></g><g id="path9085"><path class="cls-21" d="M2518.22,590.93c-32.5,7.65-83.88,1.9-112.84-12.88-25.26-12.88-24-28.73,2.82-36.3,1.45-.4,3-.79,4.48-1.14,9.57-2.17.29-8.58-11.71-8-15.56.72-30,2.9-42,6.63-32.78,10.26-35,30-5.19,46.88,39,22.13,113.62,31.07,160.18,20.13,10.06-2.36,17.93-5.45,23.59-9s-9.26-8.71-18.74-6.41l-.61.14"/></g><g id="path9105"><path class="cls-21" d="M2479.9,631.76c-48.74,0-106.86-10.47-142.67-27.37-31.95-15.07-47.81-29.79-48.46-45-.45-10.56,6.45-20.06,20.51-28.26,16.09-9.36,43.89-14.71,82.63-15.91,22.29-.67,35.85-.29,57.47,4l1.65.29-2.13,12.74-1.83-.31c-20.71-4.11-33.05-4.5-54.76-3.8-36.08,1.11-62.54,6-76.57,14.17-6.59,3.84-14.39,9.82-14.1,16.52.19,4.45,4.58,16.63,41.07,33.85,45,21.22,130.4,32.06,179.29,22.71,34.95-6.66,45.17-15.52,45.7-19.71.39-3.18-4.8-9.57-20.77-17.11L2503,557.88l5.49-11.69,43.88,20.71c20.26,9.56,29.44,19.52,28.06,30.43-1.72,13.65-20.59,24-56.07,30.77-13,2.48-28.22,3.66-44.5,3.66"/></g><g id="path9125"><path class="cls-21" d="M2561,558.49l-57.14,13.45c-11,2.6-29.63.17-41.49-5.44s-12.52-12.23-1.47-14.84L2518,538.22c11-2.6,29.63-.17,41.49,5.43S2572,555.9,2561,558.49"/></g><g id="path9145"><path class="cls-25" d="M2545.76,546.89c5.47,2.58,5.13,5.79-.76,7.18s-15.09.42-20.56-2.17-5.13-5.8.75-7.18,15.09-.41,20.57,2.17"/></g><g id="path9165"><path class="cls-54" d="M2727.38,483c16.32,6.18,16.58,16.85.58,23.82s-42.21,7.63-58.53,1.44l-57.63-21.82c-16.33-6.18-16.58-16.84-.58-23.81s42.21-7.63,58.53-1.45ZM2623.6,552.3l-16.09,7c-31.6,13.78-83.36,15-115.59,2.85s-32.76-33.26-1.16-47l16.09-7c31.6-13.78,83.36-15.06,115.59-2.85S2655.2,538.53,2623.6,552.3ZM2574.39,459l-116.31,50.69c-44.71,19.5-44,49.3,1.63,66.58s118.83,15.46,163.54-4l116.31-50.71c44.71-19.5,44-49.3-1.63-66.56s-118.83-15.47-163.54,4"/></g><g id="path9185"><path class="cls-21" d="M2727.11,471.89c16.32,6.18,16.58,16.84.58,23.81s-42.21,7.63-58.53,1.45l-57.63-21.82c-16.33-6.18-16.58-16.85-.58-23.81s42.2-7.64,58.53-1.45Zm-103.79,69.32-16.08,7c-31.61,13.79-83.36,15-115.59,2.86s-32.76-33.27-1.16-47.06l16.09-7c31.6-13.77,83.36-15.05,115.59-2.84S2654.92,527.43,2623.32,541.21Zm-49.2-93.37-116.31,50.71c-44.72,19.49-44,49.3,1.63,66.57s118.83,15.46,163.54-4l116.31-50.71c44.71-19.5,44-49.3-1.62-66.56s-118.84-15.47-163.55,4"/></g><g id="c931"><path class="cls-55" d="M3803,733.5a17.7,17.7,0,0,0-17.66-17.72H2740.9a17.7,17.7,0,0,0-17.66,17.72v702.2a17.69,17.69,0,0,0,13.28,17.16c7.82,2,14.66-2.46,19.87-8.64,62.29-73.85,97.85-114.22,130.06-150.13,4.31-4.81,9-9.2,15.49-9.2h883.35a17.7,17.7,0,0,0,17.66-17.72Z"/><path class="cls-56" d="M3852.71,738.44c0-12,10.38-21.68,23.13-21.68h464.21c12.77,0,23.14,9.72,23.14,21.68v896.28c0,12-10.37,21.68-23.14,21.68H3875.84c-12.75,0-23.13-9.71-23.13-21.68Z"/><path class="cls-57" d="M3898.62,1235.8c0-14.06,12.18-25.47,27.18-25.47h351.39c15,0,27.18,11.41,27.18,25.47v341.68c0,14.06-12.18,25.48-27.18,25.48H3925.8c-15,0-27.18-11.42-27.18-25.48Z"/><rect class="cls-21" x="4260.46" y="1560.11" width="19.39" height="18.17"/><rect class="cls-58" x="4225.18" y="1560.11" width="19.39" height="18.17"/><path class="cls-59" d="M3940.66,1444c23,80.5,111.44,128.34,197.34,106.77s136.94-104.44,113.93-184.94-111.44-128.35-197.33-106.78S3917.65,1363.51,3940.66,1444Zm67.77-17c13,45.45,62.92,72.46,111.41,60.28s77.31-59,64.32-104.41-62.92-72.46-111.4-60.28S3995.44,1381.54,4008.43,1427Z"/><path class="cls-60" d="M3966.11,1303.22c-32.23,35.68-42.77,99.14-29.6,145.23,18,62.92,80,106.41,145.42,111.88l23.32-74.49c-41.41,1.41-79.93-24-91.11-63.15-8.59-30,2-53.9,23.57-74.73Z"/><path class="cls-57" d="M3898.62,813.88c0-14.07,12.18-25.48,27.18-25.48h351.39c15,0,27.18,11.41,27.18,25.48v341.68c0,14-12.18,25.47-27.18,25.47H3925.8c-15,0-27.18-11.42-27.18-25.47Z"/><rect class="cls-21" x="4260.46" y="1138.18" width="19.39" height="18.17"/><rect class="cls-58" x="4225.18" y="1138.18" width="19.39" height="18.17"/><path class="cls-59" d="M4173,855c-77-41.67-175.64-16.9-220.1,55.28s-18,164.6,59,206.27,175.63,16.91,220.09-55.27S4250,896.65,4173,855Zm-35.08,56.94c-43.48-23.52-99.16-9.54-124.26,31.21s-10.18,92.93,33.3,116.46,99.15,9.54,124.25-31.21S4181.42,935.45,4137.94,911.92Z"/><path class="cls-60" d="M4261.24,971.41c-4.13-46.59-44.55-98.45-88.64-122.31-60.19-32.57-136.83-22.26-187.24,17.25l39.71,68.13c28.22-28.44,74.66-36,112.07-15.72,28.74,15.54,39.25,39.45,39.72,68.46Z"/><path class="cls-61" d="M3042.31,817.74S3165.63,986.68,3165.63,1055s-55.26,123.72-123.32,123.72S2919,1123.23,2919,1055,3042.31,817.74,3042.31,817.74Z"/><path class="cls-62" d="M3042.31,817.74S3165.63,986.68,3165.63,1055s-55.26,123.72-123.32,123.72S2919,1123.23,2919,1055,3042.31,817.74,3042.31,817.74Z"/><path class="cls-63" d="M3011,878.1c-15,11.84-51.16,78.61-58.7,110.65-3.74,15.89-2.06,50.25,24.35,36.86,29.21-14.82,63.63-68.67,71.68-99.61C3055.32,899.17,3063.14,837,3011,878.1Z"/><path class="cls-64" d="M3256.12,945.35h19.52l-47.21,125.59H3209Z"/><path class="cls-64" d="M3276.85,988.26v-16a104.57,104.57,0,0,0,15.61-1.49,21.82,21.82,0,0,0,11.5-6.28,20.52,20.52,0,0,0,4.64-8.6,21,21,0,0,0,.9-4.8H3329v119.89H3305V988.26Z"/><path class="cls-64" d="M3405.5,1054.73c7,0,11.55-3.65,13.76-11s3.22-17.85,3.22-31.63c0-14.44-1.05-25.13-3.22-32.08s-6.75-10.42-13.76-10.42-11.55,3.48-13.82,10.42-3.38,17.64-3.38,32.08q0,20.67,3.38,31.63C3394,1051.08,3398.53,1054.73,3405.5,1054.73Zm41.24-42.58q0,29.69-9.23,45.72t-32,16q-22.78,0-32-16t-9.18-45.72q0-29.68,9.18-45.8t32-16.13q22.86,0,32,16.13T3446.74,1012.15Z"/><path class="cls-64" d="M3499.38,1054.73c7,0,11.55-3.65,13.72-11s3.27-17.85,3.27-31.63c0-14.44-1.11-25.13-3.27-32.08s-6.76-10.42-13.72-10.42-11.6,3.48-13.82,10.42-3.43,17.64-3.43,32.08c0,13.78,1.17,24.32,3.43,31.63S3492.42,1054.73,3499.38,1054.73Zm41.2-42.58q0,29.69-9.18,45.72t-32,16q-22.86,0-32-16t-9.18-45.72q0-29.68,9.18-45.8t32-16.13q22.88,0,32,16.13T3540.58,1012.15Z"/><path class="cls-64" d="M3594.43,982.39a12.79,12.79,0,0,0-3.85-9.3,13.12,13.12,0,0,0-18.57,0,13.14,13.14,0,0,0,9.29,22.44,12.59,12.59,0,0,0,9.28-3.84A12.79,12.79,0,0,0,3594.43,982.39Zm-13.13,30.75a30.59,30.59,0,1,1,21.73-9A29.56,29.56,0,0,1,3581.3,1013.14Zm80.11,16.29a13,13,0,1,0,9.29,3.85A12.66,12.66,0,0,0,3661.41,1029.43Zm0,43.9a30.76,30.76,0,1,1,21.68-52.5,30.76,30.76,0,0,1-21.68,52.5Zm-13.08-122.28h12.5l-66.61,123h-12.77Z"/><path class="cls-65" d="M3799.37,1398.76a55.41,55.41,0,0,0-55.28-55.47H3408.93a55.4,55.4,0,0,0-55.27,55.47v555.93a55.39,55.39,0,0,0,55.27,55.47h335.16a55.4,55.4,0,0,0,55.28-55.47Z"/><path class="cls-66" d="M3044,1178.66h-1.66c-68.06,0-123.32-55.44-123.32-123.72s123.32-237.21,123.32-237.21,5,6.83,12.94,18.29c2,22.94-1.3,45.42-12,69.48-21.08,47.61-51.79,95.9-55.86,148.91C2984,1098.91,3008.15,1143.64,3044,1178.66Z"/><ellipse class="cls-67" cx="2984.25" cy="1107.7" rx="27.46" ry="45.62" transform="translate(-192.6 1308.65) rotate(-23.98)"/><ellipse class="cls-68" cx="2961.38" cy="1060.73" rx="18.94" ry="31.48" transform="translate(-177.86 860.56) rotate(-16.06)"/><rect class="cls-69" x="3480.91" y="1538.08" width="272.62" height="16.65"/><rect class="cls-69" x="3480.91" y="1624.68" width="272.62" height="16.65"/><rect class="cls-69" x="3480.91" y="1711.29" width="272.62" height="16.65"/><rect class="cls-69" x="3480.91" y="1797.89" width="272.62" height="16.65"/><rect class="cls-69" x="3417.06" y="1538.08" width="50.46" height="16.65"/><rect class="cls-69" x="3417.06" y="1624.68" width="50.46" height="16.65"/><rect class="cls-69" x="3417.06" y="1711.29" width="50.46" height="16.65"/><rect class="cls-69" x="3417.06" y="1797.89" width="50.46" height="16.65"/><path class="cls-70" d="M3756.55,1938.49v-87.78H3669v87.78Zm-12.76-75v62.18h-62v-62.18Zm-55.72,32,13.33,20.21a6.38,6.38,0,0,0,10.26.51l27-33.25-9.88-8.1-21.56,26.52-8.54-13Z"/></g></g></g></svg>